<svg width="24" height="24" xmlns="http://www.w3.org/2000/svg" xmlns:xlink="http://www.w3.org/1999/xlink" preserveAspectRatio="xMidYMid meet">
 <defs>
  <path id="cWOpgr9" d="m380.83,155.79c0,-10.47 -0.52,-20.94 -1.05,-30.37c-7.91,-6.28 -15.29,-12.57 -21.62,-17.8c-13.71,-11.52 -30.58,-25.66 -36.38,-27.23c-5.8,1.57 -22.67,15.71 -36.38,27.23c-6.85,5.76 -13.71,11.52 -21.62,17.8c-1.58,9.95 -2.11,19.9 -2.11,30.37c0,87.97 31.64,149.23 59.58,149.23c27.95,0 59.58,-61.26 59.58,-149.23z"/>
  <path id="b2fd0wX2SB" d="m237.38,125.49c-0.01,-2.84 -0.02,-6.25 -0.03,-9.09c-4.14,3.42 -8.29,6.28 -12.43,9.7c-11.39,8.56 -33.61,37.61 -60.74,141.06c-14.33,55.71 -22.96,107.98 -24.49,116.51c-0.36,42.02 10.68,76.05 34.13,99.81c51.62,53.18 145.58,45.45 149.22,45.43c0.07,0 0.41,0 1.04,0c0.62,0 0.96,-0.01 1.03,-0.01c1.04,0 97.14,7.59 149.39,-45.99c23.28,-23.94 34.57,-58.05 33.89,-100.07c-1.59,-8.51 -10.61,-60.72 -25.88,-116.88c-27.4,-103.25 -50.36,-132.12 -61.81,-140.6c-4.17,-3.39 -8.34,-6.21 -12.5,-9.61c0.01,2.84 0.02,6.25 0.03,9.09c0.93,109.03 -35.63,191.5 -84.44,191.69c-48.81,0.18 -85.99,-82.02 -86.41,-191.04z"/>
  <path id="b2HI4yOAF" d="m315.9,5.12c14.34,0 28.16,11.26 49.67,29.7c-10.75,-45.06 -30.72,-72.71 -49.67,-72.71c-18.43,0 -38.91,27.65 -49.66,72.71c22.02,-18.44 35.84,-29.7 49.66,-29.7c0,0 0,0 0,0c0,0 0,0 0,0z"/>
  <path id="a1LPHBpBXG" d="m324.53,55.88l1.03,0.11l1.05,0.14l1.04,0.19l1.05,0.22l1.05,0.27l1.06,0.31l1.06,0.34l1.07,0.39l1.08,0.42l1.08,0.46l1.09,0.5l1.1,0.53l1.12,0.57l1.12,0.61l1.14,0.65l1.14,0.68l1.16,0.71l1.18,0.75l1.18,0.79l1.21,0.82l1.22,0.85l1.23,0.89l1.26,0.92l1.27,0.95l1.29,0.99l1.31,1.01l1.32,1.05l1.35,1.08l1.38,1.11l1.39,1.14l1.42,1.17l1.44,1.2l1.46,1.23l1.49,1.25l1.52,1.29l1.54,1.31l1.57,1.35l1.6,1.36l0.12,0.08l0.11,0.08l0.12,0.07l0.11,0.08l0.12,0.08l0.11,0.08l0.12,0.07l0.11,0.08l0.12,0.08l0.11,0.08l0.12,0.08l0.11,0.08l0.12,0.08l0.12,0.08l0.11,0.08l0.12,0.09l0.11,0.08l0.12,0.08l0.11,0.09l0.12,0.08l0.11,0.09l0.12,0.09l0.11,0.09l0.12,0.09l0.11,0.09l0.12,0.09l0.11,0.1l0.12,0.09l0.11,0.1l0.12,0.09l0.11,0.1l0.12,0.1l0.11,0.11l0.12,0.1l0.11,0.11l0.12,0.1l0.11,0.11l0.12,0.11l0.12,0.11l0.11,0.12l0.62,0.54l0.62,0.54l0.62,0.54l0.63,0.54l0.63,0.55l0.64,0.55l0.64,0.55l0.64,0.55l0.65,0.55l0.65,0.56l0.65,0.56l0.66,0.56l0.66,0.56l0.67,0.56l0.67,0.57l0.67,0.57l0.68,0.56l0.68,0.58l0.69,0.57l0.69,0.57l0.69,0.58l0.7,0.58l0.7,0.58l0.7,0.58l0.71,0.59l0.71,0.58l0.72,0.59l0.72,0.59l0.72,0.6l0.73,0.59l0.73,0.6l0.74,0.59l0.74,0.6l0.74,0.61l0.75,0.6l0.75,0.61l0.75,0.6l0.76,0.61l0.76,0.61l0.77,0.62l0.73,0.57l0.73,0.58l0.74,0.58l0.73,0.57l0.74,0.58l0.74,0.57l0.75,0.58l0.74,0.58l0.75,0.57l0.75,0.58l0.75,0.57l0.76,0.58l0.75,0.58l0.76,0.57l0.77,0.58l0.76,0.57l0.77,0.58l0.77,0.58l0.77,0.57l0.78,0.58l0.78,0.57l0.78,0.58l0.78,0.58l0.79,0.57l0.79,0.58l0.8,0.57l0.79,0.58l0.81,0.58l0.8,0.57l0.81,0.58l0.81,0.57l0.81,0.58l0.82,0.58l0.82,0.57l0.82,0.58l0.83,0.57l0.83,0.58l0.84,0.58l0.84,0.57l0.84,0.58l4.26,3.2l4.18,3.74l4.1,4.25l4.01,4.74l3.93,5.18l3.84,5.61l3.76,6l3.66,6.35l3.59,6.69l3.49,6.99l3.4,7.26l3.31,7.5l3.22,7.7l3.12,7.89l3.03,8.03l2.94,8.16l2.84,8.24l2.74,8.3l2.64,8.32l2.55,8.33l2.44,8.29l2.35,8.23l2.24,8.14l2.14,8.01l2.04,7.86l1.93,7.67l1.83,7.47l1.72,7.21l1.61,6.94l1.51,6.64l1.39,6.3l1.29,5.94l1.17,5.54l1.06,5.12l0.95,4.66l0.83,4.17l0.72,3.66l0.6,3.11l0.48,2.54l0.37,1.92l0,2.05l0.09,3.55l0.02,3.52l-0.03,3.48l-0.09,3.44l-0.16,3.41l-0.21,3.37l-0.27,3.33l-0.33,3.29l-0.39,3.26l-0.45,3.22l-0.5,3.19l-0.57,3.14l-0.62,3.11l-0.69,3.07l-0.74,3.03l-0.8,2.99l-0.86,2.96l-0.92,2.92l-0.98,2.88l-1.04,2.84l-1.09,2.8l-1.15,2.77l-1.22,2.72l-1.27,2.69l-1.32,2.65l-1.39,2.61l-1.45,2.57l-1.5,2.53l-1.56,2.5l-1.62,2.45l-1.68,2.41l-1.74,2.38l-1.79,2.33l-1.85,2.3l-1.91,2.25l-1.97,2.22l-2.02,2.17l-2.09,2.14l-2.14,2.1l-2.2,2.05l-4.41,4l-4.55,3.78l-4.67,3.57l-4.79,3.37l-4.9,3.16l-4.98,2.98l-5.07,2.78l-5.13,2.61l-5.18,2.43l-5.24,2.26l-5.26,2.09l-5.28,1.94l-5.29,1.79l-5.29,1.64l-5.28,1.5l-5.24,1.36l-5.21,1.24l-5.16,1.12l-5.1,1l-5.02,0.88l-4.94,0.79l-4.84,0.68l-4.73,0.6l-4.61,0.5l-4.48,0.43l-4.33,0.34l-4.18,0.28l-4.01,0.22l-3.83,0.16l-3.64,0.11l-3.44,0.06l-3.22,0.02l-3,-0.01l-2.75,-0.04l-2.51,-0.06l-2.25,-0.08l-1.97,-0.08l-1.68,-0.1l-1.39,-0.09l-1.08,-0.08l-0.2,0l-0.21,0.01l-0.23,0l-0.23,0.01l-0.26,0l-0.26,0.01l-0.27,0.01l-0.29,0.02l-0.3,0.01l-0.31,0.01l-0.32,0.02l-0.34,0.01l-0.34,0.02l-0.36,0.02l-0.37,0.01l-0.37,0.02l-0.39,0.02l-0.4,0.02l-0.41,0.02l-0.41,0.02l-0.43,0.02l-0.44,0.02l-0.44,0.02l-0.46,0.01l-0.46,0.02l-0.47,0.02l-0.48,0.02l-0.49,0.01l-0.5,0.02l-0.51,0.01l-0.51,0.02l-0.52,0.01l-0.53,0.01l-0.53,0.01l-0.54,0.01l-0.55,0.01l-0.55,0.01l-0.57,0l-0.56,0l-0.58,0l-2.56,-0.01l-2.71,-0.03l-2.83,-0.06l-2.97,-0.1l-3.08,-0.12l-3.2,-0.17l-3.31,-0.2l-3.4,-0.24l-3.51,-0.29l-3.59,-0.34l-3.68,-0.39l-3.76,-0.45l-3.83,-0.51l-3.9,-0.56l-3.96,-0.63l-4.01,-0.7l-4.06,-0.76l-4.11,-0.84l-4.14,-0.92l-4.17,-1l-4.2,-1.07l-4.21,-1.17l-4.23,-1.25l-4.24,-1.35l-4.24,-1.44l-4.23,-1.53l-4.22,-1.64l-4.21,-1.74l-4.18,-1.85l-4.15,-1.96l-4.12,-2.08l-4.08,-2.19l-4.03,-2.31l-3.98,-2.43l-3.92,-2.55l-3.86,-2.69l-3.79,-2.82l-3.71,-2.95l-3.63,-3.09l-3.54,-3.23l-2.16,-2.09l-2.1,-2.13l-2.04,-2.17l-1.99,-2.21l-1.93,-2.25l-1.88,-2.28l-1.81,-2.32l-1.76,-2.36l-1.7,-2.4l-1.64,-2.43l-1.59,-2.47l-1.53,-2.51l-1.47,-2.55l-1.42,-2.58l-1.36,-2.62l-1.3,-2.66l-1.24,-2.69l-1.19,-2.73l-1.13,-2.77l-1.08,-2.8l-1.02,-2.84l-0.96,-2.88l-0.9,-2.91l-0.85,-2.95l-0.79,-2.99l-0.74,-3.02l-0.68,-3.06l-0.62,-3.09l-0.57,-3.13l-0.51,-3.17l-0.45,-3.2l-0.4,-3.23l-0.34,-3.27l-0.29,-3.31l-0.23,-3.34l-0.17,-3.38l-0.12,-3.41l-0.06,-3.44l-0.01,-3.48l0.05,-3.52l0,-2.05l0.37,-1.92l0.48,-2.54l0.6,-3.11l0.72,-3.66l0.83,-4.17l0.95,-4.66l1.06,-5.12l1.17,-5.54l1.29,-5.94l1.39,-6.3l1.51,-6.64l1.61,-6.94l1.72,-7.21l1.83,-7.47l1.93,-7.67l2.04,-7.86l2.14,-8.01l2.24,-8.14l2.34,-8.23l2.45,-8.29l2.55,-8.33l2.64,-8.32l2.74,-8.3l2.84,-8.24l2.94,-8.16l3.03,-8.03l3.12,-7.89l3.22,-7.7l3.31,-7.5l3.4,-7.26l3.49,-6.99l3.58,-6.69l3.67,-6.35l3.76,-6l3.84,-5.61l3.93,-5.18l4.01,-4.74l4.1,-4.25l4.18,-3.74l4.26,-3.2l0.84,-0.58l0.84,-0.57l0.84,-0.58l0.83,-0.58l0.83,-0.57l0.82,-0.58l0.82,-0.57l0.82,-0.58l0.81,-0.58l0.81,-0.57l0.81,-0.58l0.8,-0.57l0.8,-0.58l0.8,-0.58l0.8,-0.57l0.79,-0.58l0.78,-0.57l0.79,-0.58l0.78,-0.58l0.78,-0.57l0.78,-0.58l0.77,-0.57l0.77,-0.58l0.77,-0.58l0.76,-0.57l0.77,-0.58l0.76,-0.57l0.75,-0.58l0.76,-0.58l0.75,-0.57l0.75,-0.58l0.75,-0.57l0.74,-0.58l0.75,-0.58l0.74,-0.57l0.74,-0.58l0.73,-0.57l0.74,-0.58l0.73,-0.58l0.73,-0.57l0.77,-0.62l0.76,-0.61l0.76,-0.61l0.75,-0.6l0.75,-0.61l0.75,-0.6l0.74,-0.61l0.74,-0.6l0.74,-0.59l0.73,-0.6l0.73,-0.59l0.72,-0.6l0.72,-0.59l0.72,-0.59l0.71,-0.58l0.71,-0.59l0.7,-0.58l0.7,-0.58l0.7,-0.58l0.69,-0.58l0.69,-0.57l0.69,-0.57l0.68,-0.58l0.68,-0.56l0.67,-0.57l0.67,-0.57l0.67,-0.56l0.66,-0.56l0.66,-0.56l0.65,-0.56l0.65,-0.56l0.65,-0.55l0.64,-0.55l0.64,-0.55l0.64,-0.55l0.63,-0.55l0.63,-0.54l0.62,-0.54l0.62,-0.54l0.62,-0.54l0.11,-0.12l0.12,-0.11l0.11,-0.11l0.12,-0.11l0.11,-0.1l0.12,-0.11l0.11,-0.1l0.12,-0.11l0.11,-0.1l0.11,-0.1l0.12,-0.09l0.11,-0.1l0.11,-0.09l0.11,-0.1l0.11,-0.09l0.11,-0.09l0.11,-0.09l0.11,-0.09l0.1,-0.09l0.11,-0.09l0.1,-0.08l0.21,-0.17l0.1,-0.08l0.1,-0.09l0.1,-0.08l0.1,-0.08l0.1,-0.08l0.09,-0.08l0.1,-0.08l0.09,-0.08l0.09,-0.08l0.09,-0.08l0.09,-0.07l0.09,-0.08l0.08,-0.08l0.09,-0.08l0.08,-0.07l0.08,-0.08l0.07,-0.08l1.6,-1.36l1.57,-1.34l1.55,-1.31l1.51,-1.28l1.49,-1.25l1.47,-1.22l1.44,-1.19l1.42,-1.16l1.39,-1.13l1.37,-1.1l1.35,-1.07l1.33,-1.03l1.31,-1.01l1.29,-0.97l1.27,-0.94l1.25,-0.9l1.24,-0.88l1.22,-0.84l1.2,-0.81l1.19,-0.77l1.17,-0.75l1.16,-0.7l1.15,-0.68l1.14,-0.64l1.12,-0.6l1.11,-0.57l1.1,-0.54l1.1,-0.5l1.08,-0.46l1.08,-0.43l1.07,-0.39l1.06,-0.36l1.06,-0.32l1.05,-0.28l1.05,-0.24l1.04,-0.21l1.04,-0.17l1.04,-0.14l1.04,-0.09l1.04,-0.06l1.02,0l1.04,0.02l1.04,0.06zm82.84,109.65l-0.2,7.23l-0.33,7.13l-0.46,7.03l-0.59,6.92l-0.72,6.8l-0.84,6.69l-0.95,6.56l-1.08,6.44l-1.19,6.3l-1.3,6.17l-1.42,6.02l-1.52,5.88l-1.63,5.72l-1.74,5.57l-1.83,5.41l-1.94,5.24l-2.03,5.08l-2.13,4.9l-2.22,4.71l-2.31,4.54l-2.4,4.34l-2.48,4.16l-2.57,3.95l-2.65,3.75l-2.72,3.54l-2.81,3.33l-2.88,3.11l-2.94,2.89l-3.02,2.67l-3.09,2.43l-3.15,2.19l-3.21,1.96l-3.28,1.71l-3.33,1.46l-3.39,1.21l-3.44,0.94l-3.49,0.68l-3.54,0.41l-3.59,0.14l-3.58,-0.14l-3.55,-0.41l-3.49,-0.68l-3.44,-0.94l-3.39,-1.21l-3.33,-1.46l-3.27,-1.71l-3.21,-1.96l-3.16,-2.19l-3.08,-2.43l-3.02,-2.67l-2.95,-2.89l-2.88,-3.11l-2.8,-3.33l-2.73,-3.54l-2.65,-3.75l-2.56,-3.95l-2.49,-4.16l-2.4,-4.34l-2.31,-4.54l-2.22,-4.71l-2.12,-4.9l-2.04,-5.08l-1.93,-5.24l-1.84,-5.41l-1.73,-5.57l-1.63,-5.72l-1.53,-5.88l-1.41,-6.02l-1.31,-6.17l-1.19,-6.3l-1.07,-6.44l-0.96,-6.56l-0.84,-6.69l-0.71,-6.8l-0.59,-6.92l-0.46,-7.03l-0.34,-7.13l-0.2,-7.23l-0.07,-7.33l0,-8.19l-0.3,0.23l-0.31,0.22l-0.31,0.23l-0.31,0.22l-0.3,0.23l-0.31,0.22l-0.31,0.22l-0.31,0.22l-0.3,0.21l-0.31,0.22l-0.31,0.22l-0.3,0.21l-0.31,0.21l-0.31,0.22l-0.31,0.21l-0.3,0.21l-0.31,0.21l-0.31,0.22l-0.3,0.21l-0.62,0.42l-0.31,0.21l-0.3,0.21l-0.31,0.21l-0.31,0.22l-0.3,0.21l-0.31,0.21l-0.31,0.22l-0.31,0.21l-0.3,0.22l-0.31,0.21l-0.31,0.22l-0.31,0.22l-0.3,0.22l-0.31,0.22l-0.31,0.22l-0.3,0.23l-0.31,0.22l-0.31,0.23l-0.31,0.23l-0.86,0.61l-0.91,0.69l-0.95,0.76l-0.99,0.85l-1.02,0.93l-1.07,1.02l-1.11,1.13l-1.14,1.22l-1.18,1.33l-1.21,1.44l-1.25,1.55l-1.29,1.67l-1.32,1.8l-1.35,1.92l-1.39,2.06l-1.42,2.2l-1.45,2.33l-1.48,2.49l-1.51,2.63l-1.54,2.79l-1.57,2.96l-1.6,3.11l-1.63,3.29l-1.65,3.46l-1.68,3.64l-1.7,3.82l-1.73,4.01l-1.75,4.2l-1.78,4.39l-1.79,4.6l-1.82,4.81l-1.85,5.02l-1.86,5.23l-1.88,5.45l-1.9,5.67l-1.92,5.9l-1.94,6.14l-1.96,6.38l-1.97,6.61l-1.99,6.87l-1.1,3.79l-1.08,3.78l-1.06,3.76l-1.03,3.73l-1.01,3.71l-0.98,3.67l-0.97,3.65l-0.93,3.6l-0.92,3.57l-0.89,3.52l-0.87,3.48l-0.84,3.42l-0.82,3.37l-0.79,3.31l-0.77,3.26l-0.74,3.19l-0.72,3.12l-0.7,3.05l-0.67,2.98l-0.65,2.9l-0.62,2.82l-0.59,2.74l-0.58,2.64l-0.54,2.56l-0.52,2.47l-0.5,2.36l-0.47,2.27l-0.44,2.16l-0.42,2.05l-0.39,1.95l-0.37,1.83l-0.34,1.71l-0.31,1.59l-0.29,1.46l-0.26,1.34l-0.23,1.21l-0.21,1.07l-0.19,0.94l-0.15,0.79l-0.13,0.65l-0.05,2.83l-0.01,2.8l0.04,2.77l0.08,2.75l0.13,2.72l0.18,2.69l0.22,2.66l0.27,2.63l0.31,2.61l0.36,2.58l0.4,2.55l0.45,2.52l0.5,2.49l0.54,2.46l0.59,2.43l0.63,2.4l0.67,2.37l0.73,2.35l0.76,2.31l0.82,2.28l0.85,2.25l0.91,2.22l0.94,2.19l1,2.15l1.04,2.13l1.08,2.09l1.13,2.06l1.17,2.03l1.21,2l1.27,1.97l1.3,1.93l1.35,1.9l1.4,1.87l1.44,1.83l1.48,1.8l1.53,1.76l1.58,1.74l1.61,1.7l1.66,1.66l1.71,1.63l3.88,3.51l4.02,3.31l4.15,3.12l4.27,2.93l4.38,2.75l4.47,2.58l4.56,2.4l4.62,2.24l4.69,2.09l4.73,1.93l4.76,1.78l4.79,1.64l4.8,1.5l4.79,1.38l4.78,1.25l4.75,1.13l4.72,1.01l4.66,0.91l4.6,0.81l4.52,0.71l4.44,0.61l4.34,0.54l4.23,0.45l4.1,0.38l3.97,0.31l3.81,0.24l3.66,0.19l3.49,0.14l3.3,0.09l3.1,0.05l2.9,0.01l2.68,-0.01l2.44,-0.04l2.19,-0.06l1.94,-0.07l1.67,-0.07l1.39,-0.08l1.1,-0.08l0.78,-0.06l0.47,-0.05l2.05,0l0.25,0.05l0.59,0.07l0.92,0.08l1.22,0.09l1.53,0.09l1.82,0.09l2.09,0.08l2.35,0.06l2.6,0.04l2.83,0.01l3.06,-0.02l3.27,-0.07l3.47,-0.1l3.65,-0.16l3.82,-0.22l3.99,-0.28l4.13,-0.34l4.26,-0.42l4.38,-0.51l4.49,-0.59l4.59,-0.68l4.67,-0.77l4.73,-0.89l4.8,-0.99l4.84,-1.11l4.87,-1.23l4.88,-1.35l4.9,-1.49l4.88,-1.63l4.87,-1.78l4.83,-1.92l4.78,-2.08l4.73,-2.24l4.66,-2.42l4.57,-2.58l4.47,-2.77l4.37,-2.95l4.24,-3.14l4.1,-3.34l3.96,-3.55l1.7,-1.66l1.67,-1.7l1.61,-1.73l1.58,-1.76l1.53,-1.79l1.49,-1.82l1.44,-1.85l1.4,-1.88l1.35,-1.91l1.32,-1.95l1.27,-1.97l1.22,-2l1.19,-2.04l1.14,-2.07l1.09,-2.09l1.06,-2.13l1.01,-2.16l0.97,-2.19l0.93,-2.22l0.88,-2.25l0.85,-2.28l0.8,-2.31l0.76,-2.34l0.71,-2.37l0.68,-2.41l0.63,-2.43l0.59,-2.47l0.55,-2.49l0.51,-2.53l0.47,-2.56l0.42,-2.59l0.39,-2.61l0.34,-2.65l0.3,-2.68l0.27,-2.72l0.22,-2.74l0.18,-2.77l0.14,-2.8l0.1,-2.84l0.05,-2.86l-0.13,-0.65l-0.15,-0.8l-0.19,-0.94l-0.21,-1.08l-0.25,-1.21l-0.27,-1.35l-0.29,-1.47l-0.33,-1.6l-0.35,-1.73l-0.38,-1.84l-0.4,-1.95l-0.43,-2.07l-0.46,-2.17l-0.48,-2.28l-0.51,-2.38l-0.53,-2.47l-0.56,-2.57l-0.58,-2.66l-0.61,-2.75l-0.63,-2.83l-0.65,-2.91l-0.68,-2.99l-0.71,-3.06l-0.72,-3.12l-0.75,-3.2l-0.77,-3.25l-0.8,-3.32l-0.81,-3.37l-0.84,-3.42l-0.86,-3.47l-0.88,-3.51l-0.91,-3.55l-0.92,-3.6l-0.95,-3.62l-0.96,-3.66l-0.99,-3.69l-1.01,-3.7l-1.02,-3.73l-1.05,-3.75l-1.06,-3.75l-2.03,-6.87l-2,-6.61l-1.99,-6.38l-1.97,-6.14l-1.94,-5.9l-1.92,-5.67l-1.9,-5.45l-1.88,-5.23l-1.85,-5.02l-1.83,-4.81l-1.8,-4.6l-1.78,-4.39l-1.76,-4.2l-1.72,-4.01l-1.7,-3.82l-1.68,-3.64l-1.65,-3.46l-1.61,-3.29l-1.59,-3.11l-1.56,-2.96l-1.53,-2.79l-1.5,-2.63l-1.47,-2.49l-1.44,-2.33l-1.41,-2.2l-1.37,-2.06l-1.34,-1.92l-1.31,-1.8l-1.27,-1.67l-1.24,-1.55l-1.21,-1.44l-1.17,-1.33l-1.13,-1.22l-1.09,-1.13l-1.06,-1.02l-1.02,-0.93l-0.99,-0.85l-0.94,-0.76l-0.9,-0.69l-0.87,-0.61l-0.31,-0.23l-0.3,-0.23l-0.31,-0.22l-0.31,-0.23l-0.31,-0.22l-0.3,-0.22l-0.31,-0.22l-0.31,-0.22l-0.3,-0.22l-0.31,-0.21l-0.31,-0.22l-0.31,-0.21l-0.3,-0.22l-0.31,-0.21l-0.31,-0.21l-0.3,-0.22l-0.31,-0.21l-0.31,-0.21l-0.31,-0.21l-0.61,-0.42l-0.31,-0.21l-0.31,-0.22l-0.3,-0.21l-0.31,-0.21l-0.31,-0.21l-0.3,-0.22l-0.31,-0.21l-0.31,-0.21l-0.31,-0.22l-0.3,-0.22l-0.31,-0.21l-0.31,-0.22l-0.3,-0.22l-0.31,-0.22l-0.31,-0.23l-0.31,-0.22l-0.3,-0.23l-0.31,-0.22l-0.31,-0.23l0,8.19l-0.07,7.33zm-86.36,-80.74l-0.51,0.23l-0.56,0.26l-0.59,0.31l-0.63,0.35l-0.65,0.39l-0.69,0.42l-0.72,0.45l-0.75,0.49l-0.77,0.53l-0.8,0.55l-0.83,0.58l-0.84,0.61l-0.87,0.64l-0.9,0.66l-0.91,0.69l-0.93,0.71l-0.94,0.73l-0.97,0.74l-0.97,0.77l-0.99,0.79l-1,0.8l-1.02,0.81l-1.02,0.83l-1.03,0.83l-1.03,0.85l-1.04,0.86l-1.05,0.86l-1.05,0.87l-1.04,0.87l-1.05,0.88l-1.05,0.88l-1.05,0.87l-1.04,0.88l-1.04,0.87l-1.03,0.87l-1.02,0.87l-1.02,0.85l-1,0.85l-0.46,0.39l-0.47,0.39l-0.47,0.39l-0.47,0.4l-0.48,0.4l-0.48,0.4l-0.49,0.41l-0.49,0.41l-0.49,0.41l-0.5,0.42l-0.5,0.42l-0.51,0.42l-0.5,0.43l-0.52,0.42l-0.51,0.43l-0.52,0.43l-0.53,0.44l-0.53,0.44l-0.53,0.43l-0.53,0.44l-0.54,0.45l-0.55,0.44l-0.54,0.45l-0.55,0.45l-0.56,0.44l-0.56,0.46l-0.56,0.45l-0.57,0.45l-0.57,0.45l-0.57,0.46l-0.58,0.46l-0.58,0.45l-0.59,0.46l-0.59,0.46l-0.59,0.46l-0.6,0.46l-0.6,0.46l-0.6,0.46l-0.61,0.46l-0.61,0.46l-0.04,0.7l-0.04,0.69l-0.04,0.7l-0.04,0.71l-0.03,0.7l-0.04,0.72l-0.04,0.71l-0.04,0.72l-0.03,0.72l-0.04,0.72l-0.04,0.73l-0.03,0.73l-0.04,0.73l-0.03,0.73l-0.03,0.74l-0.04,0.74l-0.03,0.74l-0.03,0.74l-0.03,0.75l-0.03,0.75l-0.03,0.75l-0.02,0.75l-0.03,0.75l-0.02,0.76l-0.03,0.75l-0.02,0.76l-0.02,0.76l-0.02,0.76l-0.02,0.76l-0.02,0.76l-0.02,0.77l-0.01,0.76l-0.01,0.77l-0.01,0.76l-0.01,0.77l-0.01,0.77l-0.01,0.76l0,0.77l-0.01,0.77l0,0.77l0.06,6.4l0.16,6.3l0.27,6.2l0.37,6.09l0.47,5.97l0.57,5.87l0.66,5.75l0.75,5.62l0.84,5.51l0.92,5.38l1.01,5.24l1.08,5.12l1.16,4.98l1.23,4.84l1.31,4.7l1.36,4.55l1.44,4.41l1.49,4.25l1.55,4.1l1.61,3.93l1.65,3.78l1.71,3.62l1.75,3.44l1.8,3.28l1.83,3.1l1.87,2.92l1.91,2.75l1.94,2.56l1.96,2.37l1.99,2.18l2.01,2l2.04,1.79l2.04,1.6l2.06,1.39l2.07,1.19l2.08,0.98l2.08,0.76l2.09,0.55l2.08,0.34l2.08,0.11l2.07,-0.11l2.09,-0.34l2.09,-0.55l2.08,-0.76l2.09,-0.98l2.08,-1.19l2.07,-1.39l2.06,-1.6l2.04,-1.79l2.03,-2l2.01,-2.18l1.98,-2.37l1.95,-2.56l1.92,-2.75l1.89,-2.92l1.86,-3.1l1.81,-3.28l1.77,-3.44l1.73,-3.62l1.67,-3.78l1.63,-3.93l1.57,-4.1l1.51,-4.25l1.45,-4.41l1.39,-4.55l1.32,-4.7l1.25,-4.84l1.17,-4.98l1.1,-5.12l1.02,-5.24l0.94,-5.38l0.85,-5.51l0.76,-5.62l0.67,-5.75l0.58,-5.87l0.48,-5.97l0.38,-6.09l0.27,-6.2l0.17,-6.3l0.05,-6.4l0,-0.77l0,-0.76l0,-0.77l0,-0.76l0,-0.76l0,-0.76l0,-0.75l-0.01,-0.76l0,-0.75l0,-0.75l-0.01,-0.75l-0.01,-0.75l0,-0.75l-0.01,-0.75l-0.01,-0.74l-0.01,-0.75l-0.02,-0.74l-0.01,-0.74l-0.02,-0.74l-0.02,-0.74l-0.02,-0.74l-0.02,-0.74l-0.02,-0.74l-0.03,-0.73l-0.03,-0.74l-0.03,-0.73l-0.03,-0.74l-0.04,-0.73l-0.04,-0.73l-0.04,-0.73l-0.04,-0.74l-0.05,-0.73l-0.05,-0.73l-0.06,-0.73l-0.05,-0.73l-0.06,-0.73l-0.07,-0.73l-0.07,-0.73l-0.07,-0.73l-0.07,-0.73l-0.58,-0.46l-0.57,-0.46l-0.56,-0.45l-0.57,-0.46l-0.56,-0.45l-0.55,-0.45l-0.55,-0.45l-0.55,-0.45l-0.55,-0.44l-0.55,-0.45l-0.54,-0.44l-0.53,-0.44l-0.54,-0.44l-0.53,-0.44l-0.53,-0.44l-0.53,-0.44l-0.53,-0.43l-0.52,-0.44l-0.52,-0.43l-0.52,-0.43l-0.52,-0.44l-0.51,-0.43l-0.52,-0.43l-0.51,-0.42l-0.51,-0.43l-0.51,-0.43l-0.51,-0.43l-0.51,-0.42l-0.5,-0.43l-0.51,-0.42l-0.5,-0.43l-0.5,-0.42l-0.5,-0.43l-0.5,-0.42l-0.51,-0.42l-0.5,-0.43l-0.5,-0.42l-0.49,-0.42l-0.5,-0.42l-0.5,-0.43l-0.97,-0.85l-0.98,-0.85l-0.99,-0.87l-1,-0.87l-1,-0.87l-1.02,-0.88l-1.02,-0.87l-1.02,-0.88l-1.03,-0.88l-1.03,-0.87l-1.03,-0.87l-1.03,-0.86l-1.02,-0.86l-1.03,-0.85l-1.02,-0.83l-1.01,-0.83l-1,-0.81l-1,-0.8l-0.99,-0.79l-0.97,-0.77l-0.97,-0.74l-0.95,-0.73l-0.93,-0.71l-0.92,-0.69l-0.9,-0.66l-0.88,-0.64l-0.86,-0.61l-0.84,-0.58l-0.82,-0.55l-0.79,-0.53l-0.77,-0.49l-0.74,-0.45l-0.71,-0.42l-0.68,-0.39l-0.65,-0.35l-0.62,-0.31l-0.59,-0.26l-0.55,-0.23l-0.52,-0.18l-0.48,-0.14l-0.44,0.14l-0.49,0.18z"/>
 </defs>
 <g>
  <title>background</title>
  <rect fill="none" id="canvas_background" height="26" width="26" y="-1" x="-1"/>
 </g>
 <g>
  <title>Layer 1</title>
  <g stroke="null" id="svg_1">
   <g stroke="null" id="svg_2">
    <g stroke="null" id="svg_3">
     <use stroke="null" transform="matrix(0.05007143505993233,0,0,0.04843422482245383,46.923571949443335,188.61921770870242) " x="-1020.115818" y="-3950.134379" id="svg_4" fill="#ebd97f" xlink:href="#cWOpgr9"/>
     <g stroke="null" id="svg_5">
      <use stroke="#000000" transform="matrix(0.05007143505993233,0,0,0.04843422482245383,46.923571949443335,188.61921770870242) " x="-1020.115818" y="-3950.134379" id="svg_6" stroke-opacity="0" fill-opacity="0" xlink:href="#cWOpgr9"/>
     </g>
    </g>
    <g stroke="null" id="svg_7">
     <use stroke="null" transform="matrix(0.05007143505993233,0,0,0.04843422482245383,46.923571949443335,188.61921770870242) " x="-1020.115818" y="-3950.134379" id="svg_8" fill="#e8be05" xlink:href="#b2fd0wX2SB"/>
     <g stroke="null" id="svg_9">
      <use stroke="#000000" transform="matrix(0.05007143505993233,0,0,0.04843422482245383,46.923571949443335,188.61921770870242) " x="-1020.115818" y="-3950.134379" id="svg_10" stroke-opacity="0" fill-opacity="0" xlink:href="#b2fd0wX2SB"/>
     </g>
    </g>
    <g stroke="null" id="svg_11">
     <use stroke="null" transform="matrix(0.05007143505993233,0,0,0.04843422482245383,46.923571949443335,188.61921770870242) " x="-1020.115818" y="-3950.134379" id="svg_12" fill-opacity="0" fill="#000000" xlink:href="#b2HI4yOAF"/>
     <g stroke="null" id="svg_13">
      <use stroke="#000000" transform="matrix(0.05007143505993233,0,0,0.04843422482245383,46.923571949443335,188.61921770870242) " x="-1020.115818" y="-3950.134379" id="svg_14" stroke-opacity="0" fill-opacity="0" xlink:href="#b2HI4yOAF"/>
     </g>
    </g>
    <g stroke="null" id="svg_15">
     <use stroke="null" transform="matrix(0.05007143505993233,0,0,0.04843422482245383,46.923571949443335,188.61921770870242) " x="-1020.115818" y="-3950.134379" id="svg_16" fill="#000000" xlink:href="#a1LPHBpBXG"/>
     <g stroke="null" id="svg_17">
      <use stroke="#000000" transform="matrix(0.05007143505993233,0,0,0.04843422482245383,46.923571949443335,188.61921770870242) " x="-1020.115818" y="-3950.134379" id="svg_18" stroke-opacity="0" fill-opacity="0" xlink:href="#a1LPHBpBXG"/>
     </g>
    </g>
   </g>
  </g>
 </g>
</svg>