<svg width="24" height="24" xmlns="http://www.w3.org/2000/svg" xmlns:xlink="http://www.w3.org/1999/xlink" preserveAspectRatio="xMidYMid meet">
 <defs>
  <path id="dgf2fHomX" d="m415.64,321.82c0,25.84 -39.92,46.82 -89.09,46.82c-49.17,0 -89.09,-20.98 -89.09,-46.82c0,-25.84 39.92,-46.82 89.09,-46.82c49.17,0 89.09,20.98 89.09,46.82z"/>
  <path id="c2nVh8PPw" d="m448.99,262.73c0,37.38 -15.21,67.72 -33.94,67.72c-18.74,0 -33.95,-30.34 -33.95,-67.72c0,-37.38 15.21,-67.73 33.95,-67.73c18.73,0 33.94,30.35 33.94,67.73z"/>
  <path id="a4JAsyqylC" d="m375.7,261.89c0,56.83 -41.5,102.97 -92.61,102.97c-51.12,0 -92.61,-46.14 -92.61,-102.97c0,-56.83 41.49,-102.97 92.61,-102.97c51.11,0 92.61,46.14 92.61,102.97z"/>
  <path id="a6KOOAe940" d="m441.73,233.41c0,45.78 -49.71,82.95 -110.93,82.95c-61.22,0 -110.93,-37.17 -110.93,-82.95c0,-45.79 49.71,-82.96 110.93,-82.96c61.22,0 110.93,37.17 110.93,82.96z"/>
  <path id="eGcxDVOG" d="m405.03,261.7c0,3.97 -15.22,7.2 -33.95,7.2c-18.74,0 -33.95,-3.23 -33.95,-7.2c0,-3.97 15.21,-7.19 33.95,-7.19c18.73,0 33.95,3.22 33.95,7.19z"/>
  <path id="avcxc5GTl" d="m324.06,146.59l2.22,0.05l2.25,0.06l2.29,0.09l2.32,0.11l2.35,0.13l2.37,0.16l2.4,0.19l2.42,0.21l2.44,0.24l2.46,0.27l2.48,0.3l2.49,0.33l2.5,0.36l2.51,0.4l2.51,0.44l2.53,0.47l2.52,0.51l2.53,0.55l2.52,0.58l2.52,0.63l2.51,0.67l2.51,0.72l2.5,0.76l2.48,0.8l2.47,0.85l2.45,0.9l2.43,0.95l2.42,1l2.38,1.05l2.37,1.11l2.33,1.16l2.31,1.21l2.27,1.27l2.24,1.32l2.2,1.39l2.17,1.44l2.12,1.51l2.08,1.56l1.85,1.48l1.81,1.52l1.77,1.58l1.74,1.61l1.69,1.67l1.66,1.7l1.61,1.76l1.57,1.79l1.53,1.83l1.49,1.88l1.45,1.92l1.41,1.95l1.36,1.99l1.32,2.03l1.27,2.06l1.23,2.1l1.19,2.13l1.14,2.17l1.09,2.19l1.05,2.23l1,2.25l0.96,2.29l0.91,2.31l0.85,2.34l0.81,2.36l0.77,2.39l0.71,2.41l0.66,2.44l0.61,2.46l0.56,2.47l0.51,2.5l0.46,2.52l0.4,2.53l0.36,2.55l0.3,2.57l0.24,2.58l0.2,2.59l0.14,2.61l0.08,2.62l0.03,2.63l-0.12,4.64l-0.33,4.6l-0.55,4.54l-0.77,4.49l-0.98,4.43l-1.18,4.37l-1.39,4.31l-1.58,4.23l-1.77,4.17l-1.96,4.08l-2.14,4.01l-2.32,3.92l-2.5,3.84l-2.66,3.74l-2.84,3.65l-2.99,3.55l-3.15,3.45l-3.31,3.34l-3.45,3.24l-3.59,3.12l-3.74,3l-3.87,2.89l-4,2.76l-4.13,2.63l-4.25,2.5l-4.37,2.37l-4.48,2.23l-4.59,2.08l-4.69,1.94l-4.8,1.79l-4.89,1.64l-4.98,1.48l-5.07,1.32l-5.15,1.16l-5.23,0.99l-5.3,0.81l-5.37,0.64l-5.44,0.47l-5.5,0.28l-5.56,0.09l-3.3,-0.01l-3.27,-0.05l-3.21,-0.07l-3.17,-0.11l-3.11,-0.14l-3.08,-0.17l-3.02,-0.19l-2.98,-0.23l-2.93,-0.26l-2.89,-0.29l-2.84,-0.32l-2.8,-0.36l-2.74,-0.38l-2.71,-0.41l-2.66,-0.45l-2.61,-0.47l-2.57,-0.51l-2.52,-0.54l-2.48,-0.57l-2.43,-0.6l-2.39,-0.63l-2.34,-0.66l-2.3,-0.69l-2.26,-0.73l-2.22,-0.76l-2.17,-0.78l-2.12,-0.82l-2.09,-0.85l-2.04,-0.89l-1.99,-0.91l-1.96,-0.95l-1.91,-0.97l-1.87,-1.01l-1.83,-1.04l-1.79,-1.08l-1.74,-1.1l-1.7,-1.14l-1.66,-1.17l-1.62,-1.2l-1.58,-1.23l-2.07,-1.71l-2.01,-1.77l-1.94,-1.83l-1.87,-1.87l-1.81,-1.92l-1.74,-1.96l-1.68,-2.01l-1.62,-2.05l-1.56,-2.09l-1.5,-2.12l-1.43,-2.16l-1.38,-2.19l-1.31,-2.22l-1.26,-2.24l-1.21,-2.27l-1.14,-2.29l-1.09,-2.31l-1.04,-2.32l-0.98,-2.34l-0.93,-2.36l-0.87,-2.36l-0.83,-2.37l-0.77,-2.38l-0.72,-2.38l-0.67,-2.37l-0.63,-2.38l-0.57,-2.38l-0.53,-2.36l-0.48,-2.36l-0.44,-2.35l-0.39,-2.33l-0.34,-2.32l-0.31,-2.3l-0.26,-2.28l-0.22,-2.25l-0.17,-2.23l-0.14,-2.2l-0.09,-2.18l-0.06,-2.14l-0.02,-2.1l0.11,-4.64l0.34,-4.6l0.55,-4.54l0.77,-4.49l0.98,-4.44l1.18,-4.37l1.38,-4.3l1.58,-4.24l1.78,-4.16l1.95,-4.09l2.15,-4l2.32,-3.92l2.5,-3.84l2.66,-3.74l2.83,-3.65l3,-3.55l3.15,-3.45l3.3,-3.35l3.46,-3.23l3.59,-3.12l3.74,-3.01l3.87,-2.88l4,-2.76l4.13,-2.63l4.25,-2.51l4.36,-2.36l4.48,-2.23l4.59,-2.09l4.7,-1.94l4.79,-1.79l4.89,-1.64l4.98,-1.48l5.07,-1.32l5.15,-1.15l5.23,-0.99l5.31,-0.82l5.37,-0.64l5.44,-0.46l5.5,-0.28l5.55,-0.1l2.15,0.01l2.18,0.03zm-14.76,8l-5.13,0.43l-5.06,0.6l-5.01,0.76l-4.93,0.92l-4.86,1.08l-4.78,1.23l-4.69,1.38l-4.62,1.52l-4.52,1.67l-4.43,1.81l-4.32,1.94l-4.23,2.08l-4.12,2.21l-4.01,2.33l-3.89,2.45l-3.77,2.57l-3.65,2.69l-3.53,2.8l-3.39,2.91l-3.25,3.02l-3.12,3.11l-2.97,3.22l-2.82,3.31l-2.68,3.4l-2.51,3.49l-2.35,3.57l-2.19,3.65l-2.03,3.74l-1.84,3.81l-1.67,3.88l-1.49,3.94l-1.31,4.01l-1.11,4.08l-0.93,4.13l-0.72,4.18l-0.52,4.24l-0.32,4.28l-0.11,4.32l0.02,1.97l0.06,2l0.08,2.04l0.13,2.06l0.16,2.08l0.2,2.11l0.24,2.13l0.28,2.15l0.32,2.16l0.37,2.18l0.4,2.2l0.44,2.2l0.49,2.21l0.53,2.22l0.58,2.21l0.62,2.23l0.67,2.22l0.71,2.21l0.77,2.21l0.8,2.21l0.86,2.19l0.91,2.18l0.96,2.17l1,2.15l1.06,2.13l1.12,2.11l1.16,2.09l1.22,2.07l1.27,2.03l1.33,2.01l1.38,1.97l1.44,1.94l1.5,1.9l1.55,1.87l1.61,1.82l1.67,1.78l1.74,1.74l1.79,1.69l1.85,1.64l1.91,1.58l1.48,1.15l1.51,1.12l1.55,1.09l1.6,1.06l1.63,1.02l1.68,1l1.72,0.97l1.76,0.94l1.8,0.91l1.84,0.89l1.88,0.85l1.93,0.82l1.97,0.79l2.01,0.77l2.06,0.73l2.09,0.71l2.14,0.67l2.19,0.65l2.22,0.61l2.27,0.59l2.32,0.56l2.36,0.53l2.4,0.5l2.44,0.47l2.49,0.45l2.54,0.41l2.57,0.39l2.63,0.35l2.67,0.33l2.71,0.3l2.76,0.27l2.8,0.24l2.85,0.22l2.9,0.18l2.94,0.16l2.99,0.13l3.03,0.09l3.08,0.08l3.13,0.04l3.17,0.01l5.24,-0.09l5.18,-0.26l5.13,-0.43l5.07,-0.6l5,-0.76l4.93,-0.92l4.86,-1.08l4.78,-1.23l4.7,-1.38l4.61,-1.52l4.53,-1.67l4.42,-1.81l4.33,-1.94l4.23,-2.08l4.12,-2.2l4,-2.34l3.9,-2.45l3.77,-2.57l3.65,-2.69l3.52,-2.8l3.39,-2.91l3.26,-3.01l3.12,-3.12l2.97,-3.21l2.82,-3.31l2.67,-3.4l2.52,-3.49l2.35,-3.58l2.19,-3.65l2.02,-3.73l1.85,-3.81l1.67,-3.88l1.49,-3.95l1.3,-4.01l1.12,-4.07l0.92,-4.13l0.72,-4.18l0.53,-4.24l0.31,-4.28l0.11,-4.33l-0.03,-2.45l-0.08,-2.44l-0.12,-2.44l-0.18,-2.42l-0.23,-2.4l-0.28,-2.4l-0.32,-2.37l-0.38,-2.36l-0.42,-2.35l-0.47,-2.33l-0.52,-2.3l-0.57,-2.29l-0.61,-2.27l-0.66,-2.25l-0.7,-2.22l-0.75,-2.2l-0.8,-2.18l-0.84,-2.15l-0.88,-2.13l-0.93,-2.1l-0.97,-2.07l-1.01,-2.04l-1.05,-2.01l-1.1,-1.98l-1.14,-1.95l-1.18,-1.92l-1.22,-1.89l-1.26,-1.85l-1.3,-1.81l-1.34,-1.78l-1.38,-1.74l-1.42,-1.7l-1.45,-1.67l-1.5,-1.62l-1.53,-1.58l-1.56,-1.55l-1.61,-1.5l-1.64,-1.45l-1.67,-1.41l-1.72,-1.37l-1.95,-1.47l-1.99,-1.41l-2.04,-1.35l-2.07,-1.3l-2.11,-1.24l-2.14,-1.19l-2.18,-1.14l-2.2,-1.08l-2.24,-1.04l-2.26,-0.98l-2.28,-0.94l-2.31,-0.89l-2.32,-0.84l-2.34,-0.8l-2.36,-0.76l-2.37,-0.71l-2.38,-0.67l-2.39,-0.63l-2.4,-0.59l-2.4,-0.55l-2.4,-0.51l-2.41,-0.48l-2.4,-0.44l-2.4,-0.41l-2.39,-0.37l-2.39,-0.34l-2.37,-0.31l-2.37,-0.28l-2.34,-0.26l-2.34,-0.22l-2.31,-0.2l-2.29,-0.17l-2.27,-0.15l-2.25,-0.13l-2.21,-0.1l-2.19,-0.08l-2.16,-0.06l-2.12,-0.05l-2.09,-0.02l-2.05,-0.01l-5.24,0.09l-5.19,0.26z"/>
  <path id="c8Ln4g7nD" d="m406.23,270.98c0,7.13 -22.43,12.91 -50.05,12.91c-27.62,0 -50.05,-5.78 -50.05,-12.91c0,-7.13 22.43,-12.92 50.05,-12.92c27.62,0 50.05,5.79 50.05,12.92z"/>
  <path id="a6RaHYd8K" d="m398.85,269.31c0,3.16 -20.28,5.71 -45.25,5.69c-24.98,-0.02 -45.25,-2.6 -45.25,-5.75c0,-3.16 20.28,-5.71 45.26,-5.69c24.97,0.02 45.25,2.59 45.24,5.75z"/>
  <path id="a1HRqMbzS" d="m386.38,249.67l0.74,0.02l0.73,0.02l0.72,0.02l0.71,0.03l0.7,0.04l0.69,0.05l0.69,0.05l0.67,0.05l0.66,0.07l0.65,0.07l0.64,0.08l0.62,0.09l0.61,0.1l0.6,0.11l0.59,0.11l0.57,0.12l0.56,0.14l0.54,0.14l0.92,0.27l0.89,0.29l0.85,0.32l0.83,0.33l0.8,0.36l0.77,0.39l0.75,0.4l0.71,0.42l0.69,0.43l0.66,0.46l0.64,0.47l0.61,0.49l0.58,0.5l0.56,0.52l0.53,0.53l0.5,0.54l0.49,0.56l0.45,0.56l0.44,0.57l0.41,0.58l0.38,0.59l0.37,0.6l0.34,0.61l0.32,0.6l0.29,0.62l0.28,0.61l0.25,0.62l0.24,0.62l0.21,0.63l0.19,0.62l0.17,0.62l0.16,0.62l0.13,0.62l0.11,0.61l0.1,0.61l0.08,0.61l0.06,0.6l0.04,0.59l0.03,0.59l0,0.57l-0.05,0.95l-0.17,0.92l-0.28,0.9l-0.39,0.88l-0.49,0.85l-0.59,0.83l-0.68,0.81l-0.79,0.78l-0.87,0.76l-0.96,0.74l-1.05,0.71l-1.14,0.69l-1.21,0.67l-1.29,0.64l-1.37,0.62l-1.43,0.6l-1.51,0.57l-1.57,0.55l-1.63,0.52l-1.7,0.51l-1.75,0.47l-1.8,0.46l-1.86,0.43l-1.9,0.4l-1.95,0.38l-1.99,0.36l-2.03,0.33l-2.07,0.31l-2.1,0.28l-2.13,0.26l-2.16,0.24l-2.19,0.21l-2.2,0.19l-2.23,0.16l-2.24,0.13l-2.25,0.12l-2.27,0.08l-2.27,0.06l-2.28,0.04l-2.28,0.01l-2.53,-0.01l-2.51,-0.05l-2.47,-0.08l-2.43,-0.11l-2.39,-0.14l-2.36,-0.18l-2.31,-0.2l-2.28,-0.23l-2.22,-0.26l-2.18,-0.28l-2.14,-0.32l-2.08,-0.34l-2.04,-0.36l-1.98,-0.4l-1.93,-0.41l-1.87,-0.45l-1.81,-0.46l-1.76,-0.49l-1.69,-0.51l-1.63,-0.54l-1.57,-0.55l-1.51,-0.58l-1.43,-0.6l-1.37,-0.62l-1.3,-0.63l-1.22,-0.66l-1.15,-0.67l-1.08,-0.7l-1,-0.71l-0.92,-0.72l-0.84,-0.75l-0.76,-0.76l-0.68,-0.77l-0.59,-0.79l-0.5,-0.8l-0.42,-0.82l-0.33,-0.83l-0.23,-0.84l-0.15,-0.85l-0.04,-0.86l0.01,-0.43l0.05,-0.41l0.08,-0.41l0.11,-0.4l0.13,-0.39l0.17,-0.38l0.19,-0.38l0.21,-0.37l0.25,-0.37l0.26,-0.36l0.29,-0.35l0.31,-0.35l0.33,-0.34l0.35,-0.33l0.37,-0.33l0.39,-0.32l0.4,-0.32l0.42,-0.31l0.43,-0.3l0.45,-0.3l0.47,-0.3l0.47,-0.29l0.49,-0.28l0.49,-0.28l0.51,-0.28l0.51,-0.27l0.52,-0.27l0.52,-0.26l0.54,-0.26l0.53,-0.25l0.54,-0.25l0.54,-0.25l0.55,-0.24l0.54,-0.24l0.54,-0.24l0.54,-0.23l0.54,-0.23l0.54,-0.23l0.53,-0.22l0.52,-0.22l0.97,-0.4l0.97,-0.38l0.98,-0.38l0.99,-0.37l0.99,-0.36l1,-0.35l1.01,-0.34l1.02,-0.32l1.02,-0.32l1.03,-0.31l1.04,-0.3l1.05,-0.29l1.05,-0.28l1.06,-0.26l1.07,-0.26l1.07,-0.25l1.08,-0.24l1.09,-0.23l1.09,-0.22l1.1,-0.2l1.11,-0.2l1.12,-0.19l1.12,-0.18l1.12,-0.16l1.14,-0.16l1.14,-0.15l1.15,-0.14l1.15,-0.12l1.16,-0.12l1.17,-0.11l1.17,-0.09l1.18,-0.09l1.19,-0.08l1.19,-0.06l1.2,-0.06l1.2,-0.05l1.21,-0.03l1.22,-0.03l1.22,-0.01l1.23,-0.01l0.35,0l0.36,0l0.35,0l0.36,-0.01l0.36,0l0.36,-0.01l0.37,0l0.36,-0.01l0.37,-0.01l0.37,-0.01l0.37,-0.01l0.38,-0.01l0.37,-0.01l0.38,-0.02l0.38,-0.01l0.38,-0.01l0.38,-0.02l0.38,-0.02l0.38,-0.01l0.39,-0.02l0.38,-0.02l0.39,-0.01l0.38,-0.02l0.39,-0.02l0.39,-0.02l0.39,-0.02l0.39,-0.02l0.39,-0.02l0.39,-0.02l0.39,-0.02l0.39,-0.02l0.39,-0.03l0.39,-0.02l0.39,-0.02l0.39,-0.02l0.39,-0.02l0.39,-0.02l0.39,-0.03l0.38,-0.02l0.39,-0.02l0.81,-0.05l0.81,-0.04l0.82,-0.05l0.81,-0.04l0.81,-0.05l0.81,-0.04l0.81,-0.04l0.81,-0.04l0.81,-0.04l0.81,-0.04l0.8,-0.03l0.8,-0.03l0.79,-0.03l0.79,-0.03l0.79,-0.02l0.78,-0.02l0.78,-0.01l0.77,-0.01l0.77,-0.01l0.76,0l0.75,0l0.74,0.01zm-2.34,4.15l-0.37,0l-0.37,0.01l-0.37,0l-0.37,0.01l-0.38,0.01l-0.37,0l-0.38,0.01l-0.38,0.01l-0.38,0.01l-0.38,0.01l-0.39,0.02l-0.38,0.01l-0.39,0.01l-0.39,0.02l-0.38,0.01l-0.39,0.02l-0.39,0.01l-0.39,0.02l-0.4,0.02l-0.39,0.02l-0.39,0.02l-0.4,0.02l-0.39,0.01l-0.4,0.02l-0.39,0.02l-0.4,0.03l-0.39,0.02l-0.4,0.02l-0.4,0.02l-0.4,0.02l-0.39,0.02l-0.4,0.03l-0.4,0.02l-0.4,0.02l-0.39,0.02l-0.4,0.03l-0.4,0.02l-0.39,0.02l-0.4,0.02l-0.39,0.03l-0.4,0.02l-0.39,0.02l-0.4,0.02l-0.39,0.03l-0.4,0.02l-0.39,0.02l-0.4,0.02l-0.4,0.02l-0.39,0.03l-0.4,0.02l-0.4,0.02l-0.39,0.02l-0.4,0.02l-0.39,0.02l-0.4,0.02l-0.39,0.01l-0.39,0.02l-0.4,0.02l-0.39,0.02l-0.39,0.01l-0.39,0.02l-0.39,0.02l-0.38,0.01l-0.39,0.01l-0.39,0.02l-0.38,0.01l-0.38,0.01l-0.38,0.01l-0.38,0.01l-0.38,0.01l-0.38,0.01l-0.37,0l-0.38,0.01l-0.37,0.01l-0.37,0l-0.36,0l-0.37,0l-0.36,0l-1.17,0.01l-1.17,0.01l-1.16,0.03l-1.16,0.03l-1.15,0.05l-1.14,0.05l-1.14,0.06l-1.13,0.07l-1.13,0.09l-1.12,0.09l-1.11,0.1l-1.11,0.11l-1.1,0.12l-1.09,0.13l-1.09,0.14l-1.08,0.15l-1.07,0.16l-1.07,0.17l-1.06,0.18l-1.06,0.18l-1.04,0.2l-1.05,0.21l-1.03,0.21l-1.03,0.23l-1.02,0.23l-1.01,0.25l-1.01,0.25l-1,0.27l-1,0.27l-0.98,0.28l-0.98,0.3l-0.98,0.3l-0.96,0.31l-0.96,0.32l-0.95,0.33l-0.95,0.34l-0.93,0.35l-0.93,0.36l-0.93,0.37l-0.91,0.38l-0.39,0.16l-0.4,0.17l-0.41,0.17l-0.41,0.18l-0.42,0.18l-0.43,0.18l-0.43,0.18l-0.43,0.19l-0.43,0.2l-0.44,0.19l-0.43,0.2l-0.44,0.2l-0.43,0.21l-0.43,0.2l-0.43,0.21l-0.42,0.21l-0.41,0.22l-0.41,0.21l-0.4,0.22l-0.4,0.22l-0.38,0.22l-0.37,0.23l-0.36,0.22l-0.35,0.22l-0.34,0.23l-0.32,0.23l-0.3,0.23l-0.29,0.23l-0.27,0.23l-0.25,0.23l-0.23,0.23l-0.22,0.23l-0.19,0.24l-0.17,0.23l-0.14,0.23l-0.12,0.23l-0.1,0.23l-0.07,0.24l-0.04,0.23l-0.02,0.23l0.05,0.57l0.12,0.58l0.21,0.58l0.29,0.58l0.36,0.58l0.45,0.58l0.53,0.57l0.6,0.58l0.67,0.57l0.75,0.56l0.82,0.56l0.89,0.55l0.97,0.55l1.03,0.54l1.1,0.52l1.17,0.52l1.23,0.51l1.29,0.5l1.36,0.48l1.42,0.47l1.49,0.46l1.54,0.44l1.6,0.42l1.65,0.41l1.72,0.39l1.76,0.37l1.82,0.35l1.88,0.33l1.92,0.31l1.97,0.29l2.03,0.26l2.07,0.24l2.11,0.22l2.16,0.19l2.21,0.16l2.25,0.13l2.29,0.11l2.33,0.08l2.37,0.04l2.4,0.02l2.51,-0.02l2.46,-0.04l2.42,-0.07l2.37,-0.1l2.33,-0.12l2.28,-0.16l2.24,-0.17l2.18,-0.2l2.13,-0.22l2.09,-0.25l2.03,-0.27l1.97,-0.28l1.93,-0.31l1.86,-0.33l1.81,-0.35l1.76,-0.36l1.69,-0.38l1.63,-0.4l1.58,-0.41l1.51,-0.43l1.45,-0.44l1.38,-0.45l1.32,-0.47l1.25,-0.47l1.18,-0.49l1.12,-0.5l1.05,-0.51l0.97,-0.51l0.9,-0.52l0.83,-0.53l0.76,-0.54l0.68,-0.54l0.61,-0.55l0.53,-0.54l0.44,-0.56l0.37,-0.55l0.29,-0.55l0.21,-0.56l0.13,-0.55l0.04,-0.56l0,-0.12l-0.01,-0.16l0,-0.2l-0.01,-0.24l-0.02,-0.26l-0.03,-0.3l-0.03,-0.33l-0.04,-0.36l-0.06,-0.38l-0.06,-0.41l-0.08,-0.43l-0.1,-0.45l-0.1,-0.47l-0.13,-0.48l-0.14,-0.5l-0.16,-0.52l-0.18,-0.52l-0.2,-0.54l-0.23,-0.54l-0.25,-0.55l-0.27,-0.55l-0.3,-0.56l-0.32,-0.55l-0.35,-0.56l-0.38,-0.55l-0.42,-0.55l-0.44,-0.53l-0.48,-0.54l-0.51,-0.52l-0.54,-0.5l-0.58,-0.5l-0.62,-0.48l-0.66,-0.46l-0.69,-0.44l-0.74,-0.42l-0.78,-0.39l-0.82,-0.38l-0.87,-0.34l-0.91,-0.32l-0.96,-0.28l-0.23,-0.06l-0.24,-0.06l-0.24,-0.06l-0.24,-0.06l-0.25,-0.05l-0.25,-0.05l-0.26,-0.06l-0.26,-0.04l-0.26,-0.05l-0.27,-0.04l-0.26,-0.05l-0.28,-0.04l-0.27,-0.04l-0.28,-0.03l-0.28,-0.04l-0.29,-0.03l-0.29,-0.04l-0.29,-0.03l-0.3,-0.03l-0.29,-0.02l-0.3,-0.03l-0.31,-0.02l-0.3,-0.03l-0.31,-0.02l-0.32,-0.02l-0.31,-0.01l-0.32,-0.02l-0.32,-0.02l-0.32,-0.01l-0.32,-0.01l-0.33,-0.01l-0.33,-0.01l-0.33,-0.01l-0.34,-0.01l-0.33,-0.01l-0.34,0l-0.34,-0.01l-0.34,0l-0.35,0l-0.34,0l-0.37,0l-0.36,0z"/>
  <path id="h3tvYWmNQ" d="m384.96,251.31l0.69,0.01l0.69,0.02l0.67,0.02l0.67,0.02l0.66,0.03l0.65,0.04l0.64,0.04l0.63,0.05l0.62,0.05l0.6,0.06l0.6,0.07l0.59,0.07l0.57,0.08l0.56,0.09l0.55,0.1l0.53,0.1l0.53,0.11l0.5,0.12l0.72,0.18l0.69,0.19l0.68,0.21l0.67,0.23l0.64,0.24l0.63,0.25l0.62,0.27l0.59,0.28l0.58,0.3l0.57,0.31l0.54,0.32l0.53,0.34l0.51,0.35l0.5,0.36l0.47,0.38l0.46,0.39l0.44,0.4l0.43,0.42l0.4,0.43l0.39,0.44l0.37,0.46l0.35,0.46l0.33,0.48l0.32,0.49l0.3,0.51l0.27,0.51l0.26,0.53l0.25,0.54l0.22,0.55l0.2,0.57l0.19,0.57l0.16,0.59l0.15,0.59l0.12,0.61l0.11,0.62l0.09,0.63l0.07,0.64l0.05,0.66l0.03,0.66l0.01,0.67l-0.05,0.87l-0.16,0.84l-0.26,0.82l-0.36,0.8l-0.45,0.77l-0.54,0.76l-0.64,0.74l-0.72,0.71l-0.81,0.69l-0.89,0.68l-0.98,0.65l-1.04,0.63l-1.13,0.6l-1.19,0.59l-1.26,0.57l-1.33,0.54l-1.39,0.52l-1.46,0.5l-1.51,0.48l-1.56,0.46l-1.62,0.43l-1.67,0.42l-1.72,0.39l-1.76,0.37l-1.8,0.35l-1.84,0.32l-1.88,0.3l-1.92,0.29l-1.94,0.25l-1.97,0.24l-2,0.22l-2.02,0.19l-2.04,0.17l-2.06,0.15l-2.07,0.12l-2.09,0.1l-2.09,0.08l-2.1,0.06l-2.11,0.03l-2.11,0.01l-2.1,-0.01l-2.11,-0.03l-2.1,-0.06l-2.1,-0.08l-2.08,-0.1l-2.07,-0.12l-2.06,-0.15l-2.04,-0.17l-2.02,-0.19l-2,-0.22l-1.97,-0.24l-1.95,-0.25l-1.91,-0.29l-1.88,-0.3l-1.84,-0.32l-1.8,-0.35l-1.76,-0.37l-1.72,-0.39l-1.67,-0.42l-1.62,-0.43l-1.57,-0.46l-1.51,-0.48l-1.45,-0.5l-1.39,-0.52l-1.33,-0.54l-1.26,-0.57l-1.2,-0.59l-1.12,-0.6l-1.05,-0.63l-0.97,-0.65l-0.89,-0.68l-0.81,-0.69l-0.72,-0.71l-0.64,-0.74l-0.54,-0.76l-0.46,-0.77l-0.35,-0.8l-0.26,-0.82l-0.16,-0.84l-0.05,-0.87l0.01,-0.31l0.02,-0.3l0.04,-0.3l0.05,-0.28l0.07,-0.26l0.08,-0.26l0.1,-0.25l0.1,-0.24l0.12,-0.22l0.14,-0.22l0.14,-0.21l0.16,-0.2l0.17,-0.19l0.17,-0.18l0.19,-0.17l0.2,-0.17l0.21,-0.15l0.21,-0.16l0.23,-0.14l0.23,-0.14l0.24,-0.13l0.25,-0.12l0.25,-0.12l0.26,-0.12l0.27,-0.11l0.27,-0.1l0.28,-0.1l0.29,-0.1l0.28,-0.09l0.3,-0.09l0.29,-0.08l0.3,-0.08l0.3,-0.08l0.3,-0.08l0.31,-0.08l0.3,-0.07l0.31,-0.07l0.31,-0.08l0.31,-0.07l0.31,-0.07l0.15,-0.03l0.14,-0.03l0.15,-0.04l0.15,-0.03l0.15,-0.04l0.15,-0.03l0.15,-0.04l0.15,-0.03l0.16,-0.04l0.15,-0.04l0.16,-0.03l0.15,-0.04l0.16,-0.04l0.15,-0.04l0.16,-0.04l0.16,-0.04l0.16,-0.04l0.16,-0.04l0.16,-0.04l0.16,-0.04l0.16,-0.04l0.16,-0.05l0.16,-0.04l0.17,-0.05l0.16,-0.04l0.16,-0.05l0.17,-0.05l0.16,-0.05l0.17,-0.05l0.16,-0.05l0.17,-0.05l0.16,-0.05l0.17,-0.05l0.17,-0.06l0.16,-0.05l0.17,-0.06l0.17,-0.06l0.16,-0.06l0.17,-0.06l0.17,-0.06l3.36,-1.27l0.72,-0.27l0.72,-0.27l0.74,-0.28l0.75,-0.28l0.77,-0.29l0.78,-0.29l0.79,-0.29l0.8,-0.28l0.82,-0.29l0.83,-0.29l0.84,-0.29l0.86,-0.29l0.87,-0.28l0.88,-0.29l0.89,-0.27l0.91,-0.28l0.91,-0.27l0.94,-0.27l0.94,-0.26l0.96,-0.25l0.96,-0.25l0.99,-0.24l0.99,-0.23l1.01,-0.23l1.01,-0.21l1.03,-0.21l1.05,-0.19l1.05,-0.19l1.07,-0.17l1.08,-0.16l1.09,-0.15l1.11,-0.13l1.11,-0.12l1.13,-0.11l1.14,-0.09l1.16,-0.08l1.16,-0.06l1.18,-0.05l1.19,-0.02l1.2,-0.01l0.33,0l0.33,0l0.34,-0.01l0.34,0l0.34,0l0.34,-0.01l0.34,0l0.35,-0.01l0.35,-0.01l0.34,-0.01l0.36,0l0.35,-0.01l0.35,-0.01l0.36,-0.01l0.35,-0.02l0.36,-0.01l0.36,-0.01l0.36,-0.01l0.36,-0.02l0.37,-0.01l0.36,-0.01l0.36,-0.02l0.37,-0.01l0.36,-0.02l0.37,-0.02l0.37,-0.01l0.36,-0.02l0.37,-0.02l0.37,-0.01l0.37,-0.02l0.36,-0.02l0.37,-0.02l0.37,-0.01l0.37,-0.02l0.37,-0.02l0.36,-0.02l0.37,-0.02l0.37,-0.02l0.36,-0.01l0.37,-0.02l0.76,-0.04l0.76,-0.04l0.77,-0.04l0.76,-0.04l0.76,-0.03l0.76,-0.04l0.77,-0.03l0.76,-0.04l0.75,-0.03l0.76,-0.03l0.75,-0.02l0.75,-0.03l0.75,-0.02l0.74,-0.02l0.74,-0.02l0.74,-0.02l0.72,-0.01l0.73,-0.01l0.72,0l0.71,0l0.7,0l0.7,0.01zm19.36,20.87l-0.22,0.06l-0.23,0.05l-0.24,0.06l-0.24,0.06l-0.25,0.05l-0.25,0.06l-0.26,0.05l-0.26,0.06l-0.27,0.05l-0.28,0.06l-0.28,0.05l-0.29,0.06l-0.29,0.05l-0.3,0.06l-0.3,0.05l-0.31,0.06l-0.32,0.05l-0.33,0.06l-0.33,0.05l-0.33,0.06l-0.34,0.05l-0.35,0.05l-0.36,0.06l-0.36,0.05l-0.37,0.06l-0.37,0.05l-0.39,0.06l-0.39,0.05l-0.39,0.05l-0.4,0.06l-0.41,0.05l-0.42,0.06l-0.42,0.05l-0.43,0.06l-0.44,0.05l-0.45,0.06l-0.8,0.09l-0.82,0.1l-0.84,0.09l-0.84,0.1l-0.86,0.09l-0.87,0.09l-0.89,0.09l-0.89,0.09l-0.91,0.08l-0.92,0.09l-0.93,0.08l-0.94,0.08l-0.95,0.08l-0.96,0.08l-0.97,0.08l-0.99,0.08l-0.99,0.07l-1,0.08l-1.01,0.07l-1.02,0.07l-1.02,0.07l-1.04,0.06l-1.04,0.07l-1.05,0.06l-1.06,0.06l-1.07,0.06l-1.07,0.06l-1.08,0.06l-1.08,0.05l-1.09,0.05l-1.1,0.06l-1.1,0.05l-1.11,0.04l-1.11,0.05l-1.12,0.04l-1.12,0.04l-1.13,0.04l-1.13,0.04l-0.51,0.02l-0.51,0.01l-0.51,0.02l-0.51,0.02l-0.51,0.01l-0.5,0.01l-0.51,0.02l-0.51,0.01l-0.5,0.01l-0.51,0.02l-0.5,0.01l-0.5,0.01l-0.5,0.01l-0.5,0.01l-0.5,0.01l-0.5,0.01l-0.5,0.01l-0.49,0.01l-0.5,0.01l-0.49,0.01l-0.49,0.01l-0.49,0l-0.49,0.01l-0.49,0.01l-0.49,0l-0.48,0.01l-0.49,0l-0.48,0.01l-0.48,0l-0.48,0.01l-0.48,0l-0.48,0l-0.47,0l-0.48,0.01l-0.47,0l-0.47,0l-0.47,0l-0.47,0l-0.56,0l-0.56,0l-0.56,0l-0.56,-0.01l-0.55,0l-0.55,0l-0.55,-0.01l-0.55,0l-0.54,-0.01l-0.54,0l-0.54,-0.01l-0.53,-0.01l-0.53,0l-0.53,-0.01l-0.53,-0.01l-0.52,-0.01l-0.52,-0.01l-0.51,-0.01l-0.51,-0.02l-0.51,-0.01l-0.51,-0.01l-0.5,-0.02l-0.5,-0.01l-0.49,-0.02l-0.5,-0.01l-0.48,-0.02l-0.49,-0.01l-0.48,-0.02l-0.48,-0.02l-0.47,-0.02l-0.47,-0.02l-0.47,-0.02l-0.46,-0.02l-0.46,-0.02l-0.45,-0.02l-0.45,-0.03l-0.45,-0.02l-0.44,-0.03l-0.17,-0.01l-0.18,0l-0.17,-0.01l-0.17,-0.01l-0.16,-0.01l-0.17,-0.01l-0.17,-0.01l-0.16,-0.01l-0.17,-0.01l-0.16,-0.01l-0.16,-0.01l-0.16,-0.01l-0.16,-0.01l-0.16,-0.01l-0.15,-0.01l-0.16,-0.02l-0.16,-0.01l-0.15,-0.01l-0.15,-0.01l-0.15,-0.01l-0.16,-0.01l-0.15,-0.01l-0.14,-0.01l-0.15,-0.01l-0.15,-0.01l-0.15,-0.01l-0.14,-0.02l-0.14,-0.01l-0.15,-0.01l-0.14,-0.01l-0.14,-0.01l-0.14,-0.01l-0.14,-0.02l-0.14,-0.01l-0.14,-0.01l-0.14,-0.01l-0.13,-0.01l-0.14,-0.02l0.7,0.27l0.72,0.27l0.75,0.26l0.77,0.27l0.8,0.25l0.83,0.26l0.86,0.25l0.88,0.25l0.9,0.24l0.93,0.24l0.96,0.24l0.98,0.22l1.01,0.23l1.03,0.22l1.05,0.21l1.08,0.21l1.1,0.2l1.13,0.19l1.15,0.19l1.17,0.18l1.2,0.17l1.22,0.17l1.24,0.15l1.26,0.15l1.28,0.14l1.31,0.14l1.33,0.12l1.35,0.11l1.37,0.11l1.39,0.09l1.41,0.08l1.43,0.08l1.45,0.06l1.47,0.05l1.49,0.04l1.52,0.03l1.52,0.02l1.55,0.01l2.15,-0.01l2.11,-0.04l2.07,-0.05l2.03,-0.08l2,-0.1l1.96,-0.12l1.91,-0.14l1.88,-0.16l1.83,-0.17l1.8,-0.19l1.75,-0.21l1.7,-0.23l1.67,-0.24l1.62,-0.25l1.57,-0.27l1.53,-0.28l1.49,-0.29l1.43,-0.31l1.39,-0.31l1.35,-0.33l1.29,-0.33l1.24,-0.34l1.2,-0.35l1.14,-0.36l1.09,-0.37l1.04,-0.37l0.99,-0.37l0.94,-0.38l0.88,-0.39l0.83,-0.39l0.77,-0.39l0.72,-0.39l0.66,-0.39l0.6,-0.39l0.55,-0.39l0.49,-0.39l0.43,-0.39l0.37,-0.38l-0.22,0.05l-0.22,0.06zm-35.14,-5.15l-1.55,0.01l-1.59,0.02l-1.61,0.02l-1.64,0.03l-1.66,0.03l-1.69,0.04l-1.72,0.05l-1.74,0.05l-1.76,0.05l-1.77,0.06l-1.74,0.07l-1.72,0.07l-1.69,0.07l-1.66,0.07l-1.64,0.08l-1.6,0.09l-1.59,0.08l-1.55,0.09l-1.53,0.1l-1.49,0.09l-1.47,0.1l-1.44,0.1l-1.41,0.1l-1.38,0.11l-1.36,0.11l-1.32,0.11l-1.29,0.11l-1.26,0.11l-1.23,0.12l-1.2,0.11l-1.17,0.12l-1.14,0.12l-1.1,0.12l-1.07,0.12l-1.04,0.12l-1.01,0.12l-0.97,0.13l-0.94,0.12l-0.91,0.12l-0.87,0.12l-0.84,0.13l-0.8,0.12l-0.77,0.12l-0.74,0.13l0.75,0.07l0.77,0.07l0.81,0.07l0.85,0.07l0.88,0.06l0.91,0.07l0.95,0.06l0.98,0.06l1.01,0.05l1.04,0.06l1.08,0.04l1.11,0.05l1.14,0.05l1.18,0.04l1.2,0.03l1.24,0.04l1.26,0.03l1.3,0.02l1.33,0.02l1.35,0.02l1.39,0.02l1.41,0.01l1.45,0l1.47,0l1.5,0l1.53,-0.01l1.55,-0.01l1.59,-0.02l1.61,-0.02l1.63,-0.03l1.67,-0.03l1.69,-0.04l1.71,-0.05l1.74,-0.05l1.77,-0.05l1.77,-0.06l1.74,-0.07l1.71,-0.07l1.69,-0.07l1.66,-0.08l1.64,-0.08l1.61,-0.08l1.58,-0.09l1.55,-0.09l1.53,-0.09l1.5,-0.09l1.47,-0.1l1.44,-0.1l1.41,-0.11l1.38,-0.1l1.35,-0.11l1.32,-0.11l1.29,-0.11l1.26,-0.11l1.23,-0.12l1.2,-0.11l1.17,-0.12l1.14,-0.12l1.1,-0.12l1.07,-0.12l1.04,-0.12l1.01,-0.12l0.97,-0.12l0.94,-0.13l0.91,-0.12l0.87,-0.12l0.84,-0.13l0.81,-0.12l0.76,-0.12l0.74,-0.12l-0.74,-0.08l-0.78,-0.07l-0.81,-0.07l-0.84,-0.07l-0.88,-0.06l-0.91,-0.07l-0.95,-0.06l-0.98,-0.06l-1.01,-0.05l-1.05,-0.05l-1.07,-0.05l-1.11,-0.05l-1.15,-0.05l-1.17,-0.04l-1.2,-0.03l-1.24,-0.04l-1.26,-0.03l-1.3,-0.02l-1.33,-0.02l-1.35,-0.02l-1.39,-0.02l-1.41,-0.01l-1.45,0l-1.47,0l-1.5,0l-1.53,0.01zm13.47,-10.61l-0.42,0.01l-0.42,0l-0.43,0.01l-0.43,0l-0.43,0.01l-0.43,0.01l-0.44,0.01l-0.44,0.01l-0.44,0.02l-0.44,0.01l-0.44,0.01l-0.44,0.02l-0.45,0.01l-0.44,0.02l-0.45,0.02l-0.45,0.02l-0.45,0.01l-0.45,0.02l-0.45,0.02l-0.46,0.02l-0.45,0.02l-0.45,0.03l-0.46,0.02l-0.45,0.02l-0.45,0.02l-0.46,0.02l-0.45,0.03l-0.46,0.02l-0.45,0.02l-0.46,0.02l-0.45,0.03l-0.45,0.02l-0.45,0.02l-0.45,0.03l-0.45,0.02l-0.45,0.02l-0.46,0.02l-0.45,0.02l-0.45,0.03l-0.45,0.02l-0.46,0.02l-0.45,0.02l-0.45,0.02l-0.45,0.02l-0.45,0.02l-0.45,0.02l-0.45,0.02l-0.44,0.01l-0.45,0.02l-0.45,0.02l-0.44,0.01l-0.44,0.01l-0.44,0.02l-0.44,0.01l-0.43,0.01l-0.44,0.01l-0.43,0.01l-0.43,0.01l-0.43,0.01l-0.42,0l-0.42,0.01l-0.42,0l-0.42,0l-0.41,0l-1.22,0.01l-1.2,0.03l-1.18,0.05l-1.18,0.06l-1.16,0.09l-1.14,0.09l-1.14,0.12l-1.12,0.13l-1.1,0.14l-1.09,0.16l-1.08,0.17l-1.07,0.18l-1.05,0.2l-1.04,0.2l-1.03,0.22l-1.02,0.23l-1,0.24l-0.99,0.24l-0.98,0.26l-0.97,0.26l-0.95,0.27l-0.95,0.27l-0.93,0.29l-0.92,0.28l-0.9,0.29l-0.9,0.3l-0.89,0.3l-0.87,0.3l-0.86,0.3l-0.85,0.3l-0.85,0.31l-0.83,0.3l-0.82,0.31l0.86,-0.09l0.87,-0.09l0.89,-0.08l0.89,-0.09l0.9,-0.08l0.92,-0.08l0.92,-0.08l0.94,-0.08l0.94,-0.07l0.95,-0.08l0.97,-0.07l0.97,-0.07l0.98,-0.07l0.99,-0.07l0.99,-0.07l1.01,-0.07l1.01,-0.06l1.02,-0.07l1.03,-0.06l1.03,-0.06l1.04,-0.05l1.05,-0.06l1.05,-0.06l1.06,-0.05l1.06,-0.05l1.07,-0.05l1.08,-0.05l1.08,-0.04l1.08,-0.05l1.09,-0.04l1.1,-0.04l1.1,-0.04l1.1,-0.04l1.3,-0.04l1.29,-0.04l1.29,-0.04l1.29,-0.03l1.28,-0.03l1.27,-0.03l1.26,-0.02l1.26,-0.02l1.25,-0.02l1.24,-0.02l1.23,-0.01l1.22,-0.01l1.22,-0.01l1.2,0l1.19,0l1.18,0l1.17,0l1.16,0.01l1.15,0.01l1.14,0.01l1.12,0.02l1.11,0.02l1.09,0.02l1.08,0.03l1.07,0.02l1.05,0.03l1.03,0.04l1.02,0.03l1.01,0.04l0.98,0.04l0.97,0.05l0.95,0.04l0.94,0.05l0.5,0.03l0.49,0.03l0.48,0.03l0.47,0.03l0.47,0.03l0.45,0.03l0.45,0.03l0.44,0.03l0.43,0.04l0.42,0.03l0.41,0.03l0.41,0.04l0.39,0.03l0.39,0.04l0.38,0.03l0.37,0.04l0.37,0.04l0.35,0.03l0.35,0.04l0.34,0.04l0.34,0.04l0.32,0.04l0.32,0.04l0.31,0.04l0.31,0.04l0.3,0.05l0.29,0.04l0.28,0.04l0.28,0.05l0.27,0.04l0.26,0.05l0.26,0.05l0.25,0.04l-0.16,-0.27l-0.17,-0.27l-0.17,-0.26l-0.18,-0.26l-0.19,-0.25l-0.2,-0.25l-0.21,-0.24l-0.21,-0.24l-0.22,-0.23l-0.23,-0.23l-0.24,-0.22l-0.25,-0.21l-0.25,-0.21l-0.26,-0.21l-0.28,-0.2l-0.27,-0.19l-0.29,-0.19l-0.3,-0.18l-0.3,-0.18l-0.31,-0.17l-0.32,-0.17l-0.33,-0.16l-0.34,-0.16l-0.34,-0.15l-0.35,-0.15l-0.36,-0.14l-0.37,-0.13l-0.38,-0.13l-0.38,-0.13l-0.4,-0.12l-0.4,-0.11l-0.41,-0.11l-0.42,-0.11l-0.27,-0.06l-0.27,-0.06l-0.28,-0.06l-0.28,-0.05l-0.29,-0.06l-0.3,-0.05l-0.3,-0.05l-0.3,-0.04l-0.31,-0.05l-0.31,-0.04l-0.32,-0.04l-0.33,-0.03l-0.32,-0.04l-0.34,-0.03l-0.33,-0.03l-0.34,-0.03l-0.35,-0.03l-0.35,-0.02l-0.35,-0.03l-0.35,-0.02l-0.36,-0.02l-0.37,-0.01l-0.37,-0.02l-0.37,-0.01l-0.37,-0.02l-0.38,-0.01l-0.38,-0.01l-0.38,0l-0.39,-0.01l-0.39,0l-0.39,-0.01l-0.39,0l-0.4,0l-0.42,0l-0.42,0z"/>
 </defs>
 <g>
  <title>background</title>
  <rect fill="none" id="canvas_background" height="26" width="26" y="-1" x="-1"/>
 </g>
 <g>
  <title>Layer 1</title>
  <g stroke="null" id="svg_1">
   <g stroke="null" id="svg_2">
    <g stroke="null" id="svg_3">
     <use stroke="null" x="47.87529" y="-1445.856744" transform="matrix(0.0887877360516452,0,0,0.08600791598529962,-20.654269201288855,114.05066501821854) " id="svg_4" fill="#c79c1c" xlink:href="#dgf2fHomX"/>
    </g>
    <g stroke="null" id="svg_5">
     <use stroke="null" x="47.87529" y="-1445.856744" transform="matrix(0.0887877360516452,0,0,0.08600791598529962,-20.654269201288855,114.05066501821854) " id="svg_6" fill="#c79c1c" xlink:href="#c2nVh8PPw"/>
    </g>
    <g stroke="null" id="svg_7">
     <use stroke="null" x="47.87529" y="-1445.856744" transform="matrix(0.0887877360516452,0,0,0.08600791598529962,-20.654269201288855,114.05066501821854) " id="svg_8" fill="#c79c1c" xlink:href="#a4JAsyqylC"/>
    </g>
    <g stroke="null" id="svg_9">
     <use stroke="null" x="47.87529" y="-1445.856744" transform="matrix(0.0887877360516452,0,0,0.08600791598529962,-20.654269201288855,114.05066501821854) " id="svg_10" fill="#c79c1c" xlink:href="#a6KOOAe940"/>
    </g>
    <g stroke="null" id="svg_11">
     <use stroke="null" x="47.87529" y="-1445.856744" transform="matrix(0.0887877360516452,0,0,0.08600791598529962,-20.654269201288855,114.05066501821854) " id="svg_12" fill="#ccc3b8" xlink:href="#eGcxDVOG"/>
    </g>
    <g stroke="null" id="svg_13">
     <use stroke="null" x="47.87529" y="-1445.856744" transform="matrix(0.0887877360516452,0,0,0.08600791598529962,-20.654269201288855,114.05066501821854) " id="svg_14" fill="#000000" xlink:href="#avcxc5GTl"/>
     <g stroke="null" id="svg_15">
      <use stroke="#000000" x="47.87529" y="-1445.856744" transform="matrix(0.0887877360516452,0,0,0.08600791598529962,-20.654269201288855,114.05066501821854) " id="svg_16" stroke-opacity="0" fill-opacity="0" xlink:href="#avcxc5GTl"/>
     </g>
    </g>
    <g stroke="null" id="svg_17">
     <use stroke="null" x="47.87529" y="-1445.856744" transform="matrix(0.0887877360516452,0,0,0.08600791598529962,-20.654269201288855,114.05066501821854) " id="svg_18" fill="#ccc3b8" xlink:href="#c8Ln4g7nD"/>
    </g>
    <g stroke="null" id="svg_19">
     <use stroke="null" x="47.87529" y="-1445.856744" transform="matrix(0.0887877360516452,0,0,0.08600791598529962,-20.654269201288855,114.05066501821854) " id="svg_20" fill="#dbbd97" xlink:href="#a6RaHYd8K"/>
    </g>
    <g stroke="null" id="svg_21">
     <use stroke="null" x="47.87529" y="-1445.856744" transform="matrix(0.0887877360516452,0,0,0.08600791598529962,-20.654269201288855,114.05066501821854) " id="svg_22" fill="#000000" xlink:href="#a1HRqMbzS"/>
     <g stroke="null" id="svg_23">
      <use stroke="#000000" x="47.87529" y="-1445.856744" transform="matrix(0.0887877360516452,0,0,0.08600791598529962,-20.654269201288855,114.05066501821854) " id="svg_24" stroke-opacity="0" fill-opacity="0" xlink:href="#a1HRqMbzS"/>
     </g>
    </g>
    <g stroke="null" id="svg_25">
     <use stroke="null" x="47.87529" y="-1445.856744" transform="matrix(0.0887877360516452,0,0,0.08600791598529962,-20.654269201288855,114.05066501821854) " id="svg_26" fill="#000000" xlink:href="#h3tvYWmNQ"/>
     <g stroke="null" id="svg_27">
      <use stroke="#000000" x="47.87529" y="-1445.856744" transform="matrix(0.0887877360516452,0,0,0.08600791598529962,-20.654269201288855,114.05066501821854) " id="svg_28" stroke-opacity="0" fill-opacity="0" xlink:href="#h3tvYWmNQ"/>
     </g>
    </g>
   </g>
  </g>
 </g>
</svg>