<svg width="48" height="48" xmlns="http://www.w3.org/2000/svg" xmlns:xlink="http://www.w3.org/1999/xlink" preserveAspectRatio="xMidYMid meet">
 <defs>
  <path id="c2fyk4VItF" d="m272.23,485.26c-75.66,-91.96 -101.53,-174.98 -76.91,-246.77c45.93,-133.93 254.97,-182.42 257.08,-182.9c1.56,-0.36 3.16,0.64 3.52,2.23c0.35,1.59 -0.64,3.17 -2.23,3.52c-2.07,0.48 -207.94,48.26 -252.8,179.08c-23.91,69.71 1.64,150.82 75.9,241.1c1.04,1.26 0.86,3.11 -0.41,4.15c-0.55,0.45 -1.21,0.67 -1.87,0.67c-0.85,0 -1.7,-0.36 -2.28,-1.08z"/>
  <path id="a1C73NGgk" d="m226.32,396.33c21.64,8.86 40.32,-18.68 41.32,-31.46c0.97,-12.8 -4.92,-14.76 -4.92,-14.76c-10.82,0 -41.32,17.71 -36.4,46.22z"/>
  <path id="a11XJHBzRv" d="m203.58,341.47c17.71,15.29 44.19,-4.91 49.17,-16.72c5,-11.81 0.02,-15.55 0.02,-15.55c-10.25,-3.43 -44.81,3.67 -49.19,32.27z"/>
  <path id="d5RAyr1QtV" d="m200.82,287.29c15.2,17.76 44.42,1.79 51.12,-9.14c6.72,-10.93 2.37,-15.36 2.37,-15.36c-9.63,-4.95 -44.85,-3.12 -53.49,24.5z"/>
  <path id="d2daxPAdU" d="m214.64,235.68c12.92,19.49 43.87,7.18 51.86,-2.84c7.98,-10.02 4.22,-14.97 4.22,-14.97c-8.94,-6.08 -44.13,-8.56 -56.08,17.81z"/>
  <path id="a17creHWI3" d="m243.12,183.48c9.56,21.33 42.12,14.25 51.64,5.66c9.51,-8.57 6.61,-14.06 6.61,-14.06c-7.85,-7.46 -42.16,-15.65 -58.25,8.4z"/>
  <path id="amzuVni6w" d="m285.2,152.26c7.05,19.43 36.7,14.18 45.83,6.82c9.14,-7.37 6.93,-12.38 6.93,-12.38c-6.49,-6.94 -36.65,-15.43 -52.76,5.56z"/>
  <path id="a3Hjaxc1YP" d="m328.41,122.15c3.2,20.05 32.78,20.49 42.94,15.09c10.19,-5.41 8.98,-10.64 8.98,-10.64c-4.96,-7.91 -32.48,-21.71 -51.92,-4.45z"/>
  <path id="b2G0mR9Ar0" d="m379.37,97.62c2.83,17.72 28.99,18.11 37.97,13.34c9.02,-4.8 7.94,-9.42 7.94,-9.42c-4.39,-6.99 -28.71,-19.2 -45.91,-3.92z"/>
  <path id="aaiS15wGP" d="m429.54,80.9c2.83,17.71 28.99,18.11 37.97,13.33c9.02,-4.77 7.94,-9.41 7.94,-9.41c-4.39,-7 -28.71,-19.19 -45.91,-3.92z"/>
  <path id="b36ypYQWB4" d="m461.67,51.74c7.43,16.33 32.76,9.77 40.15,2.77c7.43,-7 5.18,-11.17 5.18,-11.17c-6.1,-5.59 -32.78,-10.89 -45.33,8.4z"/>
  <path id="g1Ffj6uiG" d="m402.89,58.56c15.43,9.14 32.45,-10.73 34.52,-20.7c2.06,-9.99 -2.17,-12.13 -2.17,-12.13c-8.2,-1.08 -33.12,9.84 -32.35,32.83z"/>
  <path id="akBGc0S6G" d="m350.91,83.16c18.49,3.13 27.65,-22.65 25.93,-33.15c-1.71,-10.51 -6.65,-11.01 -6.65,-11.01c-8.42,2.01 -28.63,21.99 -19.28,44.16z"/>
  <path id="bKJcqgpN" d="m301.47,107.91c20.01,0.98 26.45,-27.52 23.31,-38.45c-3.16,-10.93 -8.46,-10.83 -8.46,-10.83c-8.65,3.19 -27.58,26.96 -14.85,49.28z"/>
  <path id="c2UYQYTVPX" d="m245.35,142.92c21.87,-0.83 26.18,-32.47 21.71,-44.07c-4.48,-11.6 -10.23,-11.01 -10.23,-11.01c-9.13,4.3 -27.48,31.98 -11.48,55.08z"/>
  <path id="bKiLJmE9H" d="m203.03,195.03c19.36,-10.23 9.53,-40.62 0.48,-49.14c-9.07,-8.51 -14,-5.47 -14,-5.47c-6.37,7.83 -10.9,40.74 13.52,54.61z"/>
  <path id="a1sXc4jJzK" d="m174.67,255.63c16.34,-16.3 -2.96,-43.89 -14.71,-49.69c-11.77,-5.77 -15.8,-1.19 -15.8,-1.19c-4,9.88 1.6,44.43 30.51,50.88z"/>
  <path id="aHUJfjRnm" d="m174.83,317.62c11.85,-19.8 -13.63,-41.83 -26.44,-44.56c-12.82,-2.72 -15.6,2.71 -15.6,2.71c-1.47,10.55 12.41,42.68 42.04,41.85z"/>
  <path id="i1Xh2oUp13" d="m186.94,379.39c10.66,-20.46 -16.05,-40.96 -28.99,-42.94c-12.97,-1.97 -15.42,3.61 -15.42,3.61c-0.85,10.61 14.88,41.9 44.41,39.33z"/>
 </defs>
 <g>
  <title>background</title>
  <rect fill="none" id="canvas_background" height="50" width="50" y="-1" x="-1"/>
 </g>
 <g>
  <title>Layer 1</title>
  <g stroke="null" id="svg_1">
   <g stroke="null" id="svg_2">
    <g stroke="null" id="svg_3">
     <use stroke="null" transform="matrix(0.09462128318118114,0,0,0.09116013110691083,-2.5290590395540518,89.07984004552974) " x="-37.953707" y="-967.518149" id="svg_4" fill="#e6c18e" xlink:href="#c2fyk4VItF"/>
     <g stroke="null" id="svg_5">
      <use stroke="#000000" transform="matrix(0.09462128318118114,0,0,0.09116013110691083,-2.5290590395540518,89.07984004552974) " x="-37.953707" y="-967.518149" id="svg_6" stroke-opacity="0" fill-opacity="0" xlink:href="#c2fyk4VItF"/>
     </g>
    </g>
    <g stroke="null" id="svg_7">
     <use stroke="null" transform="matrix(0.09462128318118114,0,0,0.09116013110691083,-2.5290590395540518,89.07984004552974) " x="-37.953707" y="-967.518149" id="svg_8" fill="#bd8d60" xlink:href="#a1C73NGgk"/>
     <g stroke="null" id="svg_9">
      <use stroke="#000000" transform="matrix(0.09462128318118114,0,0,0.09116013110691083,-2.5290590395540518,89.07984004552974) " x="-37.953707" y="-967.518149" id="svg_10" stroke-opacity="0" fill-opacity="0" xlink:href="#a1C73NGgk"/>
     </g>
    </g>
    <g stroke="null" id="svg_11">
     <use stroke="null" transform="matrix(0.09462128318118114,0,0,0.09116013110691083,-2.5290590395540518,89.07984004552974) " x="-37.953707" y="-967.518149" id="svg_12" fill="#bd8d60" xlink:href="#a11XJHBzRv"/>
     <g stroke="null" id="svg_13">
      <use stroke="#000000" transform="matrix(0.09462128318118114,0,0,0.09116013110691083,-2.5290590395540518,89.07984004552974) " x="-37.953707" y="-967.518149" id="svg_14" stroke-opacity="0" fill-opacity="0" xlink:href="#a11XJHBzRv"/>
     </g>
    </g>
    <g stroke="null" id="svg_15">
     <use stroke="null" transform="matrix(0.09462128318118114,0,0,0.09116013110691083,-2.5290590395540518,89.07984004552974) " x="-37.953707" y="-967.518149" id="svg_16" fill="#bd8d60" xlink:href="#d5RAyr1QtV"/>
     <g stroke="null" id="svg_17">
      <use stroke="#000000" transform="matrix(0.09462128318118114,0,0,0.09116013110691083,-2.5290590395540518,89.07984004552974) " x="-37.953707" y="-967.518149" id="svg_18" stroke-opacity="0" fill-opacity="0" xlink:href="#d5RAyr1QtV"/>
     </g>
    </g>
    <g stroke="null" id="svg_19">
     <use stroke="null" transform="matrix(0.09462128318118114,0,0,0.09116013110691083,-2.5290590395540518,89.07984004552974) " x="-37.953707" y="-967.518149" id="svg_20" fill="#bd8d60" xlink:href="#d2daxPAdU"/>
     <g stroke="null" id="svg_21">
      <use stroke="#000000" transform="matrix(0.09462128318118114,0,0,0.09116013110691083,-2.5290590395540518,89.07984004552974) " x="-37.953707" y="-967.518149" id="svg_22" stroke-opacity="0" fill-opacity="0" xlink:href="#d2daxPAdU"/>
     </g>
    </g>
    <g stroke="null" id="svg_23">
     <use stroke="null" transform="matrix(0.09462128318118114,0,0,0.09116013110691083,-2.5290590395540518,89.07984004552974) " x="-37.953707" y="-967.518149" id="svg_24" fill="#bd8d60" xlink:href="#a17creHWI3"/>
     <g stroke="null" id="svg_25">
      <use stroke="#bd8d60" transform="matrix(0.09462128318118114,0,0,0.09116013110691083,-2.5290590395540518,89.07984004552974) " x="-37.953707" y="-967.518149" id="svg_26" stroke-opacity="0" fill-opacity="0" xlink:href="#a17creHWI3"/>
     </g>
    </g>
    <g stroke="null" id="svg_27">
     <use stroke="null" transform="matrix(0.09462128318118114,0,0,0.09116013110691083,-2.5290590395540518,89.07984004552974) " x="-37.953707" y="-967.518149" id="svg_28" fill="#bd8d60" xlink:href="#amzuVni6w"/>
     <g stroke="null" id="svg_29">
      <use stroke="#000000" transform="matrix(0.09462128318118114,0,0,0.09116013110691083,-2.5290590395540518,89.07984004552974) " x="-37.953707" y="-967.518149" id="svg_30" stroke-opacity="0" fill-opacity="0" xlink:href="#amzuVni6w"/>
     </g>
    </g>
    <g stroke="null" id="svg_31">
     <use stroke="null" transform="matrix(0.09462128318118114,0,0,0.09116013110691083,-2.5290590395540518,89.07984004552974) " x="-37.953707" y="-967.518149" id="svg_32" fill="#bd8d60" xlink:href="#a3Hjaxc1YP"/>
     <g stroke="null" id="svg_33">
      <use stroke="#000000" transform="matrix(0.09462128318118114,0,0,0.09116013110691083,-2.5290590395540518,89.07984004552974) " x="-37.953707" y="-967.518149" id="svg_34" stroke-opacity="0" fill-opacity="0" xlink:href="#a3Hjaxc1YP"/>
     </g>
    </g>
    <g stroke="null" id="svg_35">
     <use stroke="null" transform="matrix(0.09462128318118114,0,0,0.09116013110691083,-2.5290590395540518,89.07984004552974) " x="-37.953707" y="-967.518149" id="svg_36" fill="#bd8d60" xlink:href="#b2G0mR9Ar0"/>
     <g stroke="null" id="svg_37">
      <use stroke="#000000" transform="matrix(0.09462128318118114,0,0,0.09116013110691083,-2.5290590395540518,89.07984004552974) " x="-37.953707" y="-967.518149" id="svg_38" stroke-opacity="0" fill-opacity="0" xlink:href="#b2G0mR9Ar0"/>
     </g>
    </g>
    <g stroke="null" id="svg_39">
     <use stroke="null" transform="matrix(0.09462128318118114,0,0,0.09116013110691083,-2.5290590395540518,89.07984004552974) " x="-37.953707" y="-967.518149" id="svg_40" fill="#bd8d60" xlink:href="#aaiS15wGP"/>
     <g stroke="null" id="svg_41">
      <use stroke="#000000" transform="matrix(0.09462128318118114,0,0,0.09116013110691083,-2.5290590395540518,89.07984004552974) " x="-37.953707" y="-967.518149" id="svg_42" stroke-opacity="0" fill-opacity="0" xlink:href="#aaiS15wGP"/>
     </g>
    </g>
    <g stroke="null" id="svg_43">
     <use stroke="null" transform="matrix(0.09462128318118114,0,0,0.09116013110691083,-2.5290590395540518,89.07984004552974) " x="-37.953707" y="-967.518149" id="svg_44" fill="#bd8d60" xlink:href="#b36ypYQWB4"/>
     <g stroke="null" id="svg_45">
      <use stroke="#000000" transform="matrix(0.09462128318118114,0,0,0.09116013110691083,-2.5290590395540518,89.07984004552974) " x="-37.953707" y="-967.518149" id="svg_46" stroke-opacity="0" fill-opacity="0" xlink:href="#b36ypYQWB4"/>
     </g>
    </g>
    <g stroke="null" id="svg_47">
     <use stroke="null" transform="matrix(0.09462128318118114,0,0,0.09116013110691083,-2.5290590395540518,89.07984004552974) " x="-37.953707" y="-967.518149" id="svg_48" fill="#bd8d60" xlink:href="#g1Ffj6uiG"/>
     <g stroke="null" id="svg_49">
      <use stroke="#000000" transform="matrix(0.09462128318118114,0,0,0.09116013110691083,-2.5290590395540518,89.07984004552974) " x="-37.953707" y="-967.518149" id="svg_50" stroke-opacity="0" fill-opacity="0" xlink:href="#g1Ffj6uiG"/>
     </g>
    </g>
    <g stroke="null" id="svg_51">
     <use stroke="null" transform="matrix(0.09462128318118114,0,0,0.09116013110691083,-2.5290590395540518,89.07984004552974) " x="-37.953707" y="-967.518149" id="svg_52" fill="#bd8d60" xlink:href="#akBGc0S6G"/>
     <g stroke="null" id="svg_53">
      <use stroke="#000000" transform="matrix(0.09462128318118114,0,0,0.09116013110691083,-2.5290590395540518,89.07984004552974) " x="-37.953707" y="-967.518149" id="svg_54" stroke-opacity="0" fill-opacity="0" xlink:href="#akBGc0S6G"/>
     </g>
    </g>
    <g stroke="null" id="svg_55">
     <use stroke="null" transform="matrix(0.09462128318118114,0,0,0.09116013110691083,-2.5290590395540518,89.07984004552974) " x="-37.953707" y="-967.518149" id="svg_56" fill="#bd8d60" xlink:href="#bKJcqgpN"/>
     <g stroke="null" id="svg_57">
      <use stroke="#000000" transform="matrix(0.09462128318118114,0,0,0.09116013110691083,-2.5290590395540518,89.07984004552974) " x="-37.953707" y="-967.518149" id="svg_58" stroke-opacity="0" fill-opacity="0" xlink:href="#bKJcqgpN"/>
     </g>
    </g>
    <g stroke="null" id="svg_59">
     <use stroke="null" transform="matrix(0.09462128318118114,0,0,0.09116013110691083,-2.5290590395540518,89.07984004552974) " x="-37.953707" y="-967.518149" id="svg_60" fill="#bd8d60" xlink:href="#c2UYQYTVPX"/>
     <g stroke="null" id="svg_61">
      <use stroke="#000000" transform="matrix(0.09462128318118114,0,0,0.09116013110691083,-2.5290590395540518,89.07984004552974) " x="-37.953707" y="-967.518149" id="svg_62" stroke-opacity="0" fill-opacity="0" xlink:href="#c2UYQYTVPX"/>
     </g>
    </g>
    <g stroke="null" id="svg_63">
     <use stroke="null" transform="matrix(0.09462128318118114,0,0,0.09116013110691083,-2.5290590395540518,89.07984004552974) " x="-37.953707" y="-967.518149" id="svg_64" fill="#bd8d60" xlink:href="#bKiLJmE9H"/>
     <g stroke="null" id="svg_65">
      <use stroke="#000000" transform="matrix(0.09462128318118114,0,0,0.09116013110691083,-2.5290590395540518,89.07984004552974) " x="-37.953707" y="-967.518149" id="svg_66" stroke-opacity="0" fill-opacity="0" xlink:href="#bKiLJmE9H"/>
     </g>
    </g>
    <g stroke="null" id="svg_67">
     <use stroke="null" transform="matrix(0.09462128318118114,0,0,0.09116013110691083,-2.5290590395540518,89.07984004552974) " x="-37.953707" y="-967.518149" id="svg_68" fill="#bd8d60" xlink:href="#a1sXc4jJzK"/>
     <g stroke="null" id="svg_69">
      <use stroke="#000000" transform="matrix(0.09462128318118114,0,0,0.09116013110691083,-2.5290590395540518,89.07984004552974) " x="-37.953707" y="-967.518149" id="svg_70" stroke-opacity="0" fill-opacity="0" xlink:href="#a1sXc4jJzK"/>
     </g>
    </g>
    <g stroke="null" id="svg_71">
     <use stroke="null" transform="matrix(0.09462128318118114,0,0,0.09116013110691083,-2.5290590395540518,89.07984004552974) " x="-37.953707" y="-967.518149" id="svg_72" fill="#bd8d60" xlink:href="#aHUJfjRnm"/>
     <g stroke="null" id="svg_73">
      <use stroke="#000000" transform="matrix(0.09462128318118114,0,0,0.09116013110691083,-2.5290590395540518,89.07984004552974) " x="-37.953707" y="-967.518149" id="svg_74" stroke-opacity="0" fill-opacity="0" xlink:href="#aHUJfjRnm"/>
     </g>
    </g>
    <g stroke="null" id="svg_75">
     <use stroke="null" transform="matrix(0.09462128318118114,0,0,0.09116013110691083,-2.5290590395540518,89.07984004552974) " x="-37.953707" y="-967.518149" id="svg_76" fill="#bd8d60" xlink:href="#i1Xh2oUp13"/>
     <g stroke="null" id="svg_77">
      <use stroke="#000000" transform="matrix(0.09462128318118114,0,0,0.09116013110691083,-2.5290590395540518,89.07984004552974) " x="-37.953707" y="-967.518149" id="svg_78" stroke-opacity="0" fill-opacity="0" xlink:href="#i1Xh2oUp13"/>
     </g>
    </g>
   </g>
  </g>
 </g>
</svg>